<svg width="793" height="736" viewBox="0 0 793 736" fill="none" xmlns="http://www.w3.org/2000/svg">
<rect width="793" height="736" rx="32" fill="#F9F9F9"/>
<path d="M774.189 538.604H28V538.977H774.189V538.604Z" fill="#EBEBEB"/>
<path d="M699.421 562.616H649.993V562.99H699.421V562.616Z" fill="#EBEBEB"/>
<path d="M522.306 566.676H509.337V567.049H522.306V566.676Z" fill="#EBEBEB"/>
<path d="M648.5 548.767H619.861V549.14H648.5V548.767Z" fill="#EBEBEB"/>
<path d="M170.746 551.274H106.29V551.648H170.746V551.274Z" fill="#EBEBEB"/>
<path d="M193.49 551.274H184.043V551.648H193.49V551.274Z" fill="#EBEBEB"/>
<path d="M364.008 557.572H224.203V557.945H364.008V557.572Z" fill="#EBEBEB"/>
<path d="M381.693 472.044H93.5299C91.2724 472.04 89.1088 471.141 87.514 469.543C85.9191 467.945 85.0233 465.78 85.0233 463.523V58.4469C85.043 56.2024 85.9474 54.0562 87.5402 52.4747C89.1329 50.8931 91.2853 50.0038 93.5299 50H381.693C383.953 50 386.121 50.8978 387.719 52.4959C389.317 54.094 390.215 56.2614 390.215 58.5215V463.523C390.215 465.783 389.317 467.95 387.719 469.548C386.121 471.146 383.953 472.044 381.693 472.044ZM93.5299 50.2985C91.3714 50.3024 89.3027 51.1627 87.7778 52.6903C86.2529 54.218 85.3964 56.2884 85.3964 58.4469V463.523C85.3964 465.681 86.2529 467.752 87.7778 469.279C89.3027 470.807 91.3714 471.667 93.5299 471.671H381.693C383.853 471.667 385.923 470.807 387.45 469.28C388.978 467.753 389.837 465.683 389.841 463.523V58.4469C389.837 56.287 388.978 54.2167 387.45 52.6894C385.923 51.1622 383.853 50.3024 381.693 50.2985H93.5299Z" fill="#EBEBEB"/>
<path d="M704.509 472.044H416.331C414.073 472.04 411.907 471.141 410.31 469.544C408.713 467.947 407.814 465.782 407.81 463.523V58.4469C407.833 56.201 408.741 54.0549 410.336 52.4738C411.931 50.8926 414.085 50.0038 416.331 50H704.509C706.751 50.0078 708.9 50.8988 710.49 52.4799C712.079 54.0611 712.981 56.2049 713.001 58.4469V463.523C713.001 465.778 712.107 467.941 710.516 469.538C708.924 471.135 706.764 472.036 704.509 472.044ZM416.331 50.2985C414.172 50.3024 412.101 51.1622 410.574 52.6894C409.047 54.2167 408.187 56.287 408.183 58.4469V463.523C408.187 465.683 409.047 467.753 410.574 469.28C412.101 470.807 414.172 471.667 416.331 471.671H704.509C706.669 471.667 708.74 470.807 710.267 469.28C711.794 467.753 712.654 465.683 712.658 463.523V58.4469C712.654 56.287 711.794 54.2167 710.267 52.6894C708.74 51.1622 706.669 50.3024 704.509 50.2985H416.331Z" fill="#EBEBEB"/>
<path d="M404.545 145.172C420.845 141.325 430.94 124.992 427.093 108.692C423.246 92.3916 406.913 82.2964 390.613 86.1436C374.313 89.9908 364.218 106.324 368.065 122.624C371.912 138.924 388.245 149.019 404.545 145.172Z" fill="#E0E0E0"/>
<path d="M403.502 140.756C417.364 137.485 425.949 123.596 422.677 109.734C419.405 95.8723 405.516 87.2874 391.655 90.5591C377.793 93.8307 369.208 107.72 372.48 121.582C375.751 135.443 389.641 144.028 403.502 140.756Z" fill="#F0F0F0"/>
<path d="M396.378 133.334V115.306L384.439 122.067" fill="#F0F0F0"/>
<path d="M396.378 134.618C396.038 134.618 395.711 134.483 395.471 134.242C395.23 134.001 395.095 133.675 395.095 133.334V117.515L385.066 123.186C384.919 123.269 384.757 123.323 384.589 123.344C384.422 123.364 384.252 123.352 384.089 123.307C383.926 123.262 383.774 123.185 383.64 123.081C383.507 122.977 383.396 122.848 383.313 122.701C383.229 122.554 383.176 122.392 383.155 122.225C383.134 122.057 383.147 121.887 383.192 121.724C383.237 121.561 383.314 121.409 383.418 121.276C383.521 121.142 383.651 121.031 383.798 120.948L395.737 114.187C395.932 114.078 396.152 114.022 396.376 114.024C396.6 114.026 396.819 114.087 397.012 114.2C397.205 114.313 397.365 114.475 397.477 114.669C397.588 114.863 397.647 115.083 397.647 115.306V133.334C397.647 133.672 397.514 133.996 397.276 134.237C397.039 134.477 396.716 134.614 396.378 134.618Z" fill="#E0E0E0"/>
<path d="M688.258 266.693V168.525H561.928V266.693H688.258Z" fill="#E0E0E0"/>
<path d="M684.437 172.584H565.763V262.634H684.437V172.584Z" fill="#EBEBEB"/>
<path d="M588.372 182.299H574.061V202.536H588.372V182.299Z" fill="#F5F5F5"/>
<path d="M607.027 188.269H591.954V209.923H607.027V188.269Z" fill="#F5F5F5"/>
<path d="M589.404 233.681L574.481 231.722L571.666 253.16L586.589 255.119L589.404 233.681Z" fill="#F5F5F5"/>
<path d="M626.846 232.354H611.773V254.008H626.846V232.354Z" fill="#F5F5F5"/>
<path d="M608.833 230.07H593.76V251.724H608.833V230.07Z" fill="#F5F5F5"/>
<path d="M652.739 183.762H643.381V193.119H652.739V183.762Z" fill="#F5F5F5"/>
<path d="M666.341 186.593L657.602 183.249L654.258 191.988L662.997 195.333L666.341 186.593Z" fill="#F5F5F5"/>
<path d="M648.068 184.956C648.064 185.099 648.004 185.236 647.901 185.336C647.798 185.437 647.66 185.493 647.516 185.493C647.437 185.506 647.356 185.502 647.278 185.48C647.201 185.459 647.129 185.421 647.068 185.369C647.007 185.318 646.958 185.253 646.924 185.18C646.891 185.108 646.873 185.028 646.873 184.948C646.873 184.868 646.891 184.789 646.924 184.716C646.958 184.643 647.007 184.579 647.068 184.527C647.129 184.475 647.201 184.437 647.278 184.416C647.356 184.395 647.437 184.39 647.516 184.403C647.662 184.403 647.803 184.462 647.906 184.565C648.01 184.669 648.068 184.809 648.068 184.956Z" fill="#E0E0E0"/>
<path d="M658.828 184.956C658.828 185.065 658.795 185.172 658.735 185.263C658.674 185.353 658.588 185.424 658.487 185.466C658.386 185.508 658.275 185.519 658.168 185.497C658.061 185.476 657.962 185.423 657.885 185.346C657.808 185.269 657.755 185.171 657.734 185.063C657.713 184.956 657.723 184.845 657.765 184.744C657.807 184.644 657.878 184.557 657.969 184.497C658.059 184.436 658.166 184.404 658.275 184.404C658.422 184.404 658.562 184.462 658.666 184.565C658.769 184.669 658.828 184.809 658.828 184.956Z" fill="#E0E0E0"/>
<path d="M600.028 189.866C600.007 189.995 599.94 190.112 599.841 190.196C599.741 190.281 599.614 190.327 599.484 190.327C599.353 190.327 599.226 190.281 599.126 190.196C599.027 190.112 598.96 189.995 598.939 189.866C598.926 189.786 598.93 189.705 598.951 189.628C598.973 189.551 599.01 189.479 599.062 189.418C599.114 189.357 599.179 189.308 599.251 189.274C599.324 189.24 599.403 189.223 599.484 189.223C599.564 189.223 599.643 189.24 599.716 189.274C599.788 189.308 599.853 189.357 599.905 189.418C599.957 189.479 599.994 189.551 600.016 189.628C600.037 189.705 600.041 189.786 600.028 189.866Z" fill="#E0E0E0"/>
<path d="M581.762 183.762C581.775 183.841 581.771 183.922 581.749 183.999C581.728 184.076 581.69 184.148 581.638 184.209C581.586 184.27 581.522 184.32 581.449 184.353C581.376 184.387 581.297 184.404 581.217 184.404C581.137 184.404 581.058 184.387 580.985 184.353C580.912 184.32 580.848 184.27 580.796 184.209C580.744 184.148 580.706 184.076 580.685 183.999C580.663 183.922 580.659 183.841 580.672 183.762C580.694 183.633 580.76 183.516 580.86 183.431C580.96 183.346 581.086 183.3 581.217 183.3C581.348 183.3 581.474 183.346 581.574 183.431C581.674 183.516 581.74 183.633 581.762 183.762Z" fill="#E0E0E0"/>
<path d="M576.628 233.906C576.628 233.977 576.614 234.049 576.586 234.115C576.558 234.181 576.517 234.241 576.465 234.291C576.414 234.341 576.353 234.38 576.286 234.406C576.219 234.432 576.148 234.445 576.076 234.443C575.997 234.456 575.916 234.452 575.839 234.43C575.761 234.409 575.69 234.371 575.628 234.319C575.567 234.268 575.518 234.203 575.484 234.13C575.451 234.058 575.433 233.978 575.433 233.898C575.433 233.818 575.451 233.739 575.484 233.666C575.518 233.593 575.567 233.529 575.628 233.477C575.69 233.425 575.761 233.387 575.839 233.366C575.916 233.345 575.997 233.34 576.076 233.353C576.149 233.351 576.222 233.364 576.29 233.391C576.358 233.418 576.419 233.459 576.471 233.511C576.523 233.562 576.563 233.624 576.59 233.692C576.617 233.76 576.63 233.833 576.628 233.906Z" fill="#E0E0E0"/>
<path d="M601.849 231.309C601.849 231.418 601.817 231.525 601.756 231.616C601.695 231.706 601.609 231.777 601.508 231.819C601.407 231.861 601.296 231.872 601.189 231.85C601.082 231.829 600.984 231.776 600.906 231.699C600.829 231.622 600.777 231.524 600.755 231.416C600.734 231.309 600.745 231.198 600.787 231.097C600.829 230.997 600.899 230.91 600.99 230.85C601.081 230.789 601.188 230.757 601.297 230.757C601.443 230.757 601.584 230.815 601.687 230.918C601.791 231.022 601.849 231.162 601.849 231.309Z" fill="#E0E0E0"/>
<path d="M619.847 233.353C619.847 233.463 619.814 233.569 619.753 233.66C619.693 233.751 619.607 233.822 619.506 233.864C619.405 233.905 619.294 233.916 619.187 233.895C619.08 233.874 618.981 233.821 618.904 233.744C618.827 233.667 618.774 233.568 618.753 233.461C618.731 233.354 618.742 233.243 618.784 233.142C618.826 233.041 618.897 232.955 618.988 232.894C619.078 232.834 619.185 232.801 619.294 232.801C619.441 232.801 619.581 232.859 619.685 232.963C619.788 233.067 619.847 233.207 619.847 233.353Z" fill="#E0E0E0"/>
<path d="M676.975 213.027H646.963V231.846H676.975V213.027Z" fill="#E0E0E0"/>
<path d="M666.707 234.443H640.501V255.127H666.707V234.443Z" fill="#E0E0E0"/>
<path d="M137.435 179.956H128.078V189.314H137.435V179.956Z" fill="#F5F5F5"/>
<path d="M132.765 181.135C132.768 181.245 132.738 181.353 132.679 181.446C132.62 181.539 132.535 181.612 132.435 181.656C132.334 181.7 132.223 181.713 132.114 181.693C132.006 181.674 131.907 181.622 131.828 181.546C131.749 181.469 131.695 181.371 131.673 181.263C131.65 181.156 131.66 181.044 131.701 180.942C131.743 180.841 131.813 180.753 131.904 180.692C131.996 180.631 132.103 180.598 132.213 180.598C132.357 180.598 132.495 180.654 132.598 180.754C132.701 180.855 132.761 180.991 132.765 181.135Z" fill="#E0E0E0"/>
<path d="M401.094 606C560.901 606 690.451 598.436 690.451 589.106C690.451 579.776 560.901 572.213 401.094 572.213C241.286 572.213 111.737 579.776 111.737 589.106C111.737 598.436 241.286 606 401.094 606Z" fill="#F5F5F5"/>
<path d="M660.215 497.713C659.961 499.549 664.946 500.698 669.005 501.444C668.677 504.787 666.453 508.16 663.394 511.309C659.529 509.13 654.022 506.264 652.947 506.966C651.873 507.667 657.424 511.368 661.006 513.517C658.483 515.72 655.811 517.745 653.007 519.576C651.291 517.965 649.261 516.592 648.052 517.308C646.843 518.024 647.142 520.606 647.754 522.83C643.56 525.277 640.411 526.77 640.411 526.77C639.19 522.863 638.253 518.873 637.606 514.831C637.815 514.413 638.023 513.995 638.217 513.547C638.904 511.98 638.217 511.324 637.128 511.1C636.805 508.245 636.78 505.364 637.053 502.504C641.814 501.519 647.59 499.668 645.426 496.818C644.112 495.101 641.725 494.907 639.247 495.325C639.58 494.755 639.97 494.22 640.411 493.728C649.067 484.192 655.096 493.728 655.096 493.728C660.126 489.535 667.185 490.669 668.707 497.206C665.946 496.519 660.543 495.445 660.215 497.713Z" fill="#80BCFF"/>
<path opacity="0.3" d="M660.215 497.713C659.961 499.549 664.946 500.698 669.005 501.444C668.677 504.787 666.453 508.16 663.394 511.309C659.529 509.13 654.022 506.264 652.947 506.966C651.873 507.667 657.424 511.368 661.006 513.517C658.483 515.72 655.811 517.745 653.007 519.576C651.291 517.965 649.261 516.592 648.052 517.308C646.843 518.024 647.142 520.606 647.754 522.83C643.56 525.277 640.411 526.77 640.411 526.77C639.19 522.863 638.253 518.873 637.606 514.831C637.815 514.413 638.023 513.995 638.217 513.547C638.904 511.98 638.217 511.324 637.128 511.1C636.805 508.245 636.78 505.364 637.053 502.504C641.814 501.519 647.59 499.668 645.426 496.818C644.112 495.101 641.725 494.907 639.247 495.325C639.58 494.755 639.97 494.22 640.411 493.728C649.067 484.192 655.096 493.728 655.096 493.728C660.126 489.535 667.185 490.669 668.707 497.206C665.946 496.519 660.543 495.445 660.215 497.713Z" fill="white"/>
<path d="M649.426 567.75L650.679 567.646C650.679 567.004 645.56 503.19 659.872 497.176C660.555 496.857 661.302 496.7 662.056 496.718C662.809 496.736 663.548 496.929 664.215 497.28C669.394 499.982 671.871 511.144 671.886 511.264L673.11 510.995C673.005 510.518 670.483 499.146 664.797 496.176C663.969 495.736 663.051 495.493 662.113 495.467C661.176 495.442 660.245 495.633 659.395 496.027C644.247 502.384 649.202 565.079 649.426 567.75Z" fill="#80BCFF"/>
<path d="M647.619 566.362C647.873 563.497 653.723 495.982 642.784 488.759C640.172 487.043 637.829 486.67 635.844 487.669C630.681 490.281 630.009 501.325 629.979 501.787L631.233 501.862C631.233 501.757 631.89 491.072 636.412 488.789C637.904 488.013 639.889 488.341 642.112 489.804C652.41 496.564 646.44 565.497 646.381 566.198L647.619 566.362Z" fill="#80BCFF"/>
<path d="M645.978 571.824C646.067 569.631 647.858 517.95 637.904 513.428C636.97 512.988 635.951 512.759 634.919 512.759C633.887 512.759 632.868 512.988 631.934 513.428C625.099 516.412 620.876 529.172 620.712 529.71L621.891 530.098C621.891 529.963 626.114 517.353 632.427 514.577C633.195 514.216 634.033 514.029 634.882 514.029C635.731 514.029 636.569 514.216 637.337 514.577C644.963 518.039 645.217 557.05 644.664 571.795L645.978 571.824Z" fill="#80BCFF"/>
<path d="M648.515 569.467L649.754 569.317C648.008 553.931 644.65 512.95 650.127 508.055C650.393 507.735 650.746 507.5 651.144 507.378C651.542 507.256 651.966 507.253 652.366 507.369C656.037 508.772 658.335 522.113 658.828 527.128L660.066 526.994C659.857 525.068 657.858 508.13 652.813 506.205C652.2 505.998 651.54 505.976 650.914 506.14C650.288 506.305 649.724 506.649 649.291 507.13C642.217 513.443 648.247 567.168 648.515 569.467Z" fill="#80BCFF"/>
<path d="M669.378 540.305H624.443L628.204 590.643H665.632L669.378 540.305Z" fill="#80BCFF"/>
<path opacity="0.2" d="M655.738 540.305L654.484 590.643H628.204L624.443 540.305H655.738Z" fill="white"/>
<path d="M663.26 521.83C663.737 523.054 667.229 522.083 669.96 521.113C670.811 523.721 670.785 526.536 669.886 529.127C666.752 529.127 662.424 529.217 661.991 530.008C661.558 530.799 666.289 531.172 669.199 531.291C668.402 533.51 667.449 535.669 666.349 537.753C664.737 537.35 662.991 537.171 662.513 538.067C662.036 538.962 663.08 540.41 664.23 541.574C662.483 544.559 661.051 546.514 661.051 546.514C658.957 544.53 657.012 542.395 655.231 540.126C655.231 539.798 655.231 539.47 655.231 539.126C655.111 537.933 654.469 537.739 653.738 537.992C652.567 536.336 651.567 534.566 650.753 532.709C653.35 530.471 656.275 527.352 653.962 526.337C653.201 526.122 652.396 526.122 651.636 526.335C650.875 526.548 650.187 526.967 649.649 527.546C649.658 527.079 649.713 526.614 649.813 526.158C651.888 517.308 658.872 521.113 658.872 521.113C660.543 516.815 665.274 515.144 668.468 518.606C666.393 519.129 662.692 520.322 663.26 521.83Z" fill="#80BCFF"/>
<path opacity="0.3" d="M663.26 521.83C663.737 523.054 667.229 522.083 669.96 521.113C670.811 523.721 670.785 526.536 669.886 529.127C666.752 529.127 662.424 529.217 661.991 530.008C661.558 530.799 666.289 531.172 669.199 531.291C668.402 533.51 667.449 535.669 666.349 537.753C664.737 537.35 662.991 537.171 662.513 538.067C662.036 538.962 663.08 540.41 664.23 541.574C662.483 544.559 661.051 546.514 661.051 546.514C658.957 544.53 657.012 542.395 655.231 540.126C655.231 539.798 655.231 539.47 655.231 539.126C655.111 537.933 654.469 537.739 653.738 537.992C652.567 536.336 651.567 534.566 650.753 532.709C653.35 530.471 656.275 527.352 653.962 526.337C653.201 526.122 652.396 526.122 651.636 526.335C650.875 526.548 650.187 526.967 649.649 527.546C649.658 527.079 649.713 526.614 649.813 526.158C651.888 517.308 658.872 521.113 658.872 521.113C660.543 516.815 665.274 515.144 668.468 518.606C666.393 519.129 662.692 520.322 663.26 521.83Z" fill="white"/>
<path d="M629.89 527.799C631.293 527.921 632.676 528.211 634.009 528.665C634.367 527.709 634.569 526.701 634.606 525.68C634.889 516.622 628.413 520.442 624.98 517.771C624.199 517.09 623.285 516.579 622.296 516.27C621.307 515.962 620.264 515.863 619.234 515.98C619.534 516.455 619.794 516.954 620.01 517.472C620.078 517.671 620.104 517.882 620.085 518.091C620.066 518.3 620.002 518.503 619.9 518.686C619.797 518.869 619.657 519.028 619.488 519.154C619.319 519.279 619.126 519.367 618.921 519.412C618.059 519.579 617.166 519.469 616.369 519.099C616.138 518.969 615.918 518.819 615.712 518.651C615.173 519.589 614.757 520.592 614.474 521.636C614.138 522.904 613.943 524.205 613.892 525.516C614.397 525.631 614.895 525.776 615.384 525.949C615.582 526.032 615.758 526.16 615.899 526.322C616.04 526.484 616.141 526.676 616.196 526.884C616.251 527.092 616.257 527.309 616.215 527.519C616.172 527.73 616.082 527.928 615.951 528.098C615.413 528.644 614.781 529.088 614.086 529.411C614.319 530.864 614.699 532.289 615.22 533.664H615.683C616.026 533.739 616.339 533.814 616.668 533.918C616.854 533.96 617.034 534.026 617.205 534.112C617.424 534.212 617.616 534.363 617.764 534.552C617.912 534.742 618.012 534.965 618.055 535.202C618.092 535.449 618.062 535.701 617.967 535.932C617.873 536.163 617.718 536.365 617.518 536.515C617.306 536.671 617.081 536.811 616.847 536.933C617.71 538.434 618.949 539.684 620.443 540.559C621.752 539.957 623.027 539.284 624.264 538.545C623.98 538.171 623.712 537.813 623.458 537.44C623.159 537.003 623.026 536.474 623.085 535.948C623.116 535.698 623.196 535.457 623.322 535.239C623.447 535.022 623.615 534.831 623.816 534.679C624.219 534.368 624.728 534.228 625.234 534.291C625.74 534.361 626.199 534.623 626.517 535.023C626.816 535.47 627.144 535.888 627.472 536.321C629.202 535.041 630.753 533.535 632.084 531.844H631.935C631.098 531.625 630.244 531.48 629.383 531.411C628.88 531.34 628.426 531.076 628.116 530.674C627.807 530.273 627.666 529.766 627.726 529.262C627.843 528.794 628.129 528.386 628.528 528.116C628.927 527.846 629.412 527.734 629.89 527.799Z" fill="#80BCFF"/>
<path opacity="0.5" d="M629.89 527.799C631.293 527.921 632.676 528.211 634.009 528.665C634.367 527.709 634.569 526.701 634.606 525.68C634.889 516.622 628.413 520.442 624.98 517.771C624.199 517.09 623.285 516.579 622.296 516.27C621.307 515.962 620.264 515.863 619.234 515.98C619.534 516.455 619.794 516.954 620.01 517.472C620.078 517.671 620.104 517.882 620.085 518.091C620.066 518.3 620.002 518.503 619.9 518.686C619.797 518.869 619.657 519.028 619.488 519.154C619.319 519.279 619.126 519.367 618.921 519.412C618.059 519.579 617.166 519.469 616.369 519.099C616.138 518.969 615.918 518.819 615.712 518.651C615.173 519.589 614.757 520.592 614.474 521.636C614.138 522.904 613.943 524.205 613.892 525.516C614.397 525.631 614.895 525.776 615.384 525.949C615.582 526.032 615.758 526.16 615.899 526.322C616.04 526.484 616.141 526.676 616.196 526.884C616.251 527.092 616.257 527.309 616.215 527.519C616.172 527.73 616.082 527.928 615.951 528.098C615.413 528.644 614.781 529.088 614.086 529.411C614.319 530.864 614.699 532.289 615.22 533.664H615.683C616.026 533.739 616.339 533.814 616.668 533.918C616.854 533.96 617.034 534.026 617.205 534.112C617.424 534.212 617.616 534.363 617.764 534.552C617.912 534.742 618.012 534.965 618.055 535.202C618.092 535.449 618.062 535.701 617.967 535.932C617.873 536.163 617.718 536.365 617.518 536.515C617.306 536.671 617.081 536.811 616.847 536.933C617.71 538.434 618.949 539.684 620.443 540.559C621.752 539.957 623.027 539.284 624.264 538.545C623.98 538.171 623.712 537.813 623.458 537.44C623.159 537.003 623.026 536.474 623.085 535.948C623.116 535.698 623.196 535.457 623.322 535.239C623.447 535.022 623.615 534.831 623.816 534.679C624.219 534.368 624.728 534.228 625.234 534.291C625.74 534.361 626.199 534.623 626.517 535.023C626.816 535.47 627.144 535.888 627.472 536.321C629.202 535.041 630.753 533.535 632.084 531.844H631.935C631.098 531.625 630.244 531.48 629.383 531.411C628.88 531.34 628.426 531.076 628.116 530.674C627.807 530.273 627.666 529.766 627.726 529.262C627.843 528.794 628.129 528.386 628.528 528.116C628.927 527.846 629.412 527.734 629.89 527.799Z" fill="white"/>
<path d="M627.308 496.549C626.519 496.003 625.667 495.552 624.771 495.206C624.989 494.545 625.322 493.928 625.756 493.385C629.577 488.49 631.308 493.385 634.278 493.385C634.987 493.365 635.692 493.494 636.347 493.764C637.003 494.034 637.594 494.439 638.083 494.952C637.709 495.083 637.344 495.243 636.994 495.43C636.864 495.497 636.751 495.593 636.663 495.711C636.576 495.829 636.517 495.965 636.491 496.11C636.465 496.254 636.473 496.402 636.514 496.543C636.554 496.684 636.627 496.814 636.725 496.922C637.108 497.392 637.631 497.726 638.218 497.877C638.401 497.893 638.586 497.893 638.77 497.877C638.634 498.615 638.403 499.332 638.083 500.011C637.711 500.828 637.245 501.6 636.695 502.31C636.376 502.142 636.047 501.993 635.711 501.862C635.57 501.821 635.422 501.813 635.278 501.837C635.134 501.862 634.998 501.918 634.879 502.003C634.759 502.088 634.661 502.198 634.591 502.326C634.52 502.454 634.48 502.596 634.472 502.742C634.519 503.259 634.655 503.764 634.875 504.235C634.114 504.893 633.289 505.473 632.412 505.966L632.129 505.787L631.517 505.488C631.396 505.435 631.271 505.39 631.144 505.354C630.985 505.308 630.816 505.303 630.654 505.34C630.493 505.376 630.343 505.453 630.219 505.563C630.092 505.677 629.997 505.823 629.945 505.985C629.893 506.148 629.884 506.321 629.92 506.488C629.964 506.662 630.024 506.832 630.099 506.996C628.988 507.403 627.79 507.516 626.622 507.324C626.196 506.436 625.823 505.524 625.503 504.593L626.398 504.354C626.733 504.273 627.025 504.071 627.219 503.787C627.314 503.641 627.378 503.477 627.409 503.305C627.44 503.133 627.436 502.957 627.398 502.787C627.32 502.449 627.112 502.154 626.819 501.967C626.526 501.78 626.171 501.716 625.831 501.787C625.473 501.892 625.115 501.966 624.756 502.041C624.399 500.617 624.243 499.15 624.294 497.683H624.383C624.905 497.94 625.404 498.24 625.876 498.579C626.171 498.764 626.528 498.826 626.869 498.75C627.209 498.675 627.507 498.469 627.696 498.176C627.823 497.9 627.853 497.59 627.783 497.296C627.712 497.001 627.545 496.738 627.308 496.549Z" fill="#80BCFF"/>
<path opacity="0.3" d="M627.308 496.549C626.519 496.003 625.667 495.552 624.771 495.206C624.989 494.545 625.322 493.928 625.756 493.385C629.577 488.49 631.308 493.385 634.278 493.385C634.987 493.365 635.692 493.494 636.347 493.764C637.003 494.034 637.594 494.439 638.083 494.952C637.709 495.083 637.344 495.243 636.994 495.43C636.864 495.497 636.751 495.593 636.663 495.711C636.576 495.829 636.517 495.965 636.491 496.11C636.465 496.254 636.473 496.402 636.514 496.543C636.554 496.684 636.627 496.814 636.725 496.922C637.108 497.392 637.631 497.726 638.218 497.877C638.401 497.893 638.586 497.893 638.77 497.877C638.634 498.615 638.403 499.332 638.083 500.011C637.711 500.828 637.245 501.6 636.695 502.31C636.376 502.142 636.047 501.993 635.711 501.862C635.57 501.821 635.422 501.813 635.278 501.837C635.134 501.862 634.998 501.918 634.879 502.003C634.759 502.088 634.661 502.198 634.591 502.326C634.52 502.454 634.48 502.596 634.472 502.742C634.519 503.259 634.655 503.764 634.875 504.235C634.114 504.893 633.289 505.473 632.412 505.966L632.129 505.787L631.517 505.488C631.396 505.435 631.271 505.39 631.144 505.354C630.985 505.308 630.816 505.303 630.654 505.34C630.493 505.376 630.343 505.453 630.219 505.563C630.092 505.677 629.997 505.823 629.945 505.985C629.893 506.148 629.884 506.321 629.92 506.488C629.964 506.662 630.024 506.832 630.099 506.996C628.988 507.403 627.79 507.516 626.622 507.324C626.196 506.436 625.823 505.524 625.503 504.593L626.398 504.354C626.733 504.273 627.025 504.071 627.219 503.787C627.314 503.641 627.378 503.477 627.409 503.305C627.44 503.133 627.436 502.957 627.398 502.787C627.32 502.449 627.112 502.154 626.819 501.967C626.526 501.78 626.171 501.716 625.831 501.787C625.473 501.892 625.115 501.966 624.756 502.041C624.399 500.617 624.243 499.15 624.294 497.683H624.383C624.905 497.94 625.404 498.24 625.876 498.579C626.171 498.764 626.528 498.826 626.869 498.75C627.209 498.675 627.507 498.469 627.696 498.176C627.823 497.9 627.853 497.59 627.783 497.296C627.712 497.001 627.545 496.738 627.308 496.549Z" fill="white"/>
<path d="M663.916 505.622C664.185 507.458 659.2 508.682 655.126 509.353C655.454 512.696 657.678 516.069 660.752 519.218C664.603 517.039 670.124 514.174 671.199 514.875C672.273 515.577 666.722 519.352 663.125 521.427C665.629 523.649 668.282 525.699 671.065 527.56C672.796 525.949 674.825 524.576 676.019 525.292C677.213 526.008 676.945 528.59 676.318 530.829C680.526 533.276 683.66 534.754 683.66 534.754C684.881 530.847 685.818 526.857 686.466 522.815C686.257 522.397 686.048 521.964 685.854 521.516C685.183 519.949 685.854 519.293 686.958 519.069C687.256 516.216 687.256 513.34 686.958 510.488C682.213 509.488 676.512 507.637 678.601 504.787C679.9 503.071 682.287 502.877 684.78 503.294C684.447 502.72 684.052 502.185 683.601 501.698C674.96 492.161 668.916 501.698 668.916 501.698C663.901 497.504 656.842 498.713 655.305 505.19C658.2 504.429 663.588 503.354 663.916 505.622Z" fill="#80BCFF"/>
<path opacity="0.5" d="M663.916 505.622C664.185 507.458 659.2 508.682 655.126 509.353C655.454 512.696 657.678 516.069 660.752 519.218C664.603 517.039 670.124 514.174 671.199 514.875C672.273 515.577 666.722 519.352 663.125 521.427C665.629 523.649 668.282 525.699 671.065 527.56C672.796 525.949 674.825 524.576 676.019 525.292C677.213 526.008 676.945 528.59 676.318 530.829C680.526 533.276 683.66 534.754 683.66 534.754C684.881 530.847 685.818 526.857 686.466 522.815C686.257 522.397 686.048 521.964 685.854 521.516C685.183 519.949 685.854 519.293 686.958 519.069C687.256 516.216 687.256 513.34 686.958 510.488C682.213 509.488 676.512 507.637 678.601 504.787C679.9 503.071 682.287 502.877 684.78 503.294C684.447 502.72 684.052 502.185 683.601 501.698C674.96 492.161 668.916 501.698 668.916 501.698C663.901 497.504 656.842 498.713 655.305 505.19C658.2 504.429 663.588 503.354 663.916 505.622Z" fill="white"/>
<path d="M508.784 585.151H500.695V366.787H490.502V585.151H482.414C481.822 585.163 481.259 585.405 480.844 585.826C480.428 586.247 480.194 586.814 480.19 587.405V590.643H511.097V587.405C511.095 587.104 511.034 586.807 510.916 586.531C510.798 586.254 510.627 586.004 510.412 585.794C510.197 585.585 509.942 585.42 509.662 585.31C509.383 585.199 509.084 585.145 508.784 585.151Z" fill="#263238"/>
<path d="M317.641 585.151H309.552V366.787H299.359V585.151H291.27C290.671 585.151 290.097 585.388 289.672 585.81C289.247 586.233 289.006 586.806 289.002 587.405V590.643H319.909V587.405C319.905 586.806 319.664 586.233 319.239 585.81C318.814 585.388 318.24 585.151 317.641 585.151Z" fill="#263238"/>
<g opacity="0.3">
<path d="M508.784 585.151H500.695V366.787H490.503V585.151H482.414C481.823 585.163 481.259 585.405 480.844 585.826C480.429 586.247 480.194 586.814 480.19 587.405V590.643H511.097V587.405C511.095 587.104 511.034 586.807 510.916 586.531C510.798 586.254 510.627 586.004 510.412 585.794C510.197 585.585 509.942 585.42 509.663 585.31C509.383 585.199 509.085 585.145 508.784 585.151Z" fill="white"/>
<path d="M317.641 585.151H309.552V366.787H299.359V585.151H291.27C290.671 585.151 290.097 585.388 289.672 585.81C289.247 586.233 289.006 586.806 289.002 587.405V590.643H319.909V587.405C319.905 586.806 319.664 586.233 319.239 585.81C318.814 585.388 318.24 585.151 317.641 585.151Z" fill="white"/>
</g>
<path d="M544.452 167.808H255.602V380.83H544.452V167.808Z" fill="#263238"/>
<path opacity="0.4" d="M544.452 167.808H255.602V380.83H544.452V167.808Z" fill="white"/>
<path d="M536.975 373.383V175.285L263.049 175.285V373.383H536.975Z" fill="#80BCFF"/>
<path opacity="0.2" d="M536.975 373.383V175.285L263.049 175.285V373.383H536.975Z" fill="black"/>
<path opacity="0.1" d="M515.306 275.349C512.993 272.454 511.067 269.23 508.501 266.395C508.011 265.863 507.653 265.224 507.456 264.529C505.42 264.262 503.35 264.577 501.486 265.44C494.263 268.678 487.682 274.155 481.966 279.558C480.742 280.707 479.489 281.796 478.235 282.9C483.876 276.603 489.517 270.29 495.233 264.052C496.075 263.177 496.734 262.143 497.173 261.01C497.611 259.878 497.819 258.669 497.785 257.455C495.149 254.448 492.236 251.695 489.085 249.232C488.498 248.833 487.992 248.327 487.592 247.74C485.353 247.933 483.281 249.007 481.832 250.725C469.609 264.007 457.506 277.065 444 288.974C445.089 287.482 446.179 285.99 447.224 284.393C454.312 273.872 461.909 263.768 469.833 253.859C475.415 246.875 485.055 238.293 486.831 229.041C486.473 228.593 486.1 228.13 485.712 227.683C485.324 227.235 484.712 226.533 484.22 225.981C483.722 225.886 483.246 225.699 482.817 225.429C480.444 223.937 478.937 220.713 480.832 218.116C481.239 217.536 481.744 217.031 482.324 216.624C485.204 212.998 488.025 209.341 490.711 205.566C490.851 205.368 490.981 205.164 491.099 204.954C489.174 199.417 484.578 195.402 480.101 191.627C478.475 192.014 477.006 192.889 475.892 194.134C470.505 199.969 464.326 205.118 459.342 211.311C453.984 217.952 449.567 225.295 444.492 232.13C444.4 232.233 444.315 232.342 444.239 232.458C438.09 239.293 431.927 246.113 425.957 253.098C420.764 258.351 415.51 263.544 410.377 268.648C402.273 276.856 394.05 285.064 385.514 292.959C387.633 289.825 389.752 286.706 391.931 283.602C401.542 269.917 412.212 257.008 422.495 243.83C427.569 237.338 432.21 230.548 437.12 223.952C441 218.758 446.806 214.012 449.85 208.297C450.479 207.155 450.884 205.904 451.044 204.61C450.697 204.315 450.382 203.985 450.104 203.625C447.558 200.61 444.385 198.186 440.806 196.522C440.01 196.133 439.353 195.507 438.926 194.731C437.49 195.155 436.161 195.883 435.031 196.865C430.209 201.022 425.658 205.484 421.405 210.222C422.797 207.911 423.905 205.441 424.704 202.864C427.121 194.611 417.913 188.537 410.839 192.209L410.227 192.537C409.402 190.172 407.755 188.182 405.585 186.93C403.416 185.679 400.868 185.248 398.408 185.717C395.677 182.076 390.946 180.165 386.603 183.434C368.904 196.955 352.04 211.923 335.34 226.713C333.848 228.056 332.355 229.414 330.863 230.772C333.752 226.224 336.871 221.826 340.205 217.594C344.041 212.729 349.383 207.655 351.428 201.611C351.218 201.483 351.023 201.333 350.846 201.163C346.46 197.177 342.763 192.492 339.907 187.299C339.912 187.254 339.912 187.209 339.907 187.165C332.445 188.836 324.655 193.656 318.357 197.283C310.235 202.101 302.563 207.64 295.434 213.833C295.443 214.613 295.306 215.387 295.031 216.117C294.862 216.539 294.663 216.948 294.434 217.34V218.669C295.049 219.883 295.549 221.152 295.926 222.459C297.086 223.002 298.068 223.861 298.762 224.937C299.427 226.14 299.752 227.502 299.702 228.876C299.702 229.25 299.612 229.623 299.553 229.996C300.264 230.537 300.786 231.289 301.045 232.145C302.759 231.827 304.353 231.048 305.657 229.891C307.627 228.175 309.626 226.518 311.626 224.892C309.044 229.205 306.582 233.592 304.075 237.786C299.687 245.173 295.12 252.337 290.061 259.321C286.226 264.634 281.107 269.26 280.465 275.14C284.032 278.125 286.509 281.96 289.599 285.467C289.756 285.656 289.901 285.856 290.031 286.064C293.26 285.795 296.354 284.655 298.986 282.766C298.165 283.736 297.359 284.721 296.613 285.751C289.852 295.004 280.301 302.48 274.227 312.121C273.499 313.211 272.992 314.433 272.735 315.718L274.854 318.404C275.456 319.079 275.868 319.901 276.049 320.787C276.23 321.673 276.173 322.592 275.884 323.448L276.033 323.583C275.779 323.881 275.526 324.165 275.287 324.478C274.27 325.764 273.547 327.256 273.168 328.851C275.994 333.286 279.522 337.233 283.614 340.536C289.166 340.133 294.061 336.522 298.971 333.701C302.314 331.776 305.642 329.806 308.94 327.732C307.264 329.835 305.86 332.142 304.761 334.596C304.358 335.549 304.091 336.554 303.97 337.581C304.246 337.736 304.51 337.911 304.761 338.104C308.871 341.094 312.685 344.472 316.148 348.192C316.66 348.001 317.158 347.777 317.64 347.52C320.878 345.755 324.003 343.791 326.998 341.64C326.517 343.023 326.27 344.475 326.266 345.939C327.01 345.833 327.767 345.891 328.486 346.107C329.205 346.324 329.868 346.694 330.43 347.192C333.116 349.505 335.28 352.46 337.892 354.803C338.749 354.595 339.563 354.236 340.295 353.744C347.324 348.983 353.278 342.715 359.994 337.521C361.68 336.208 363.382 334.925 365.083 333.641C364.636 334.976 364.473 336.389 364.606 337.79C365.277 337.97 365.903 338.29 366.441 338.73C369.665 341.327 372.814 343.998 376.007 346.64C376.822 346.341 377.591 345.929 378.291 345.416C381.456 343.154 384.449 340.66 387.245 337.954C387.325 338.514 387.445 339.068 387.603 339.611C388.223 339.325 388.906 339.205 389.587 339.262C390.267 339.32 390.92 339.553 391.483 339.939C394.091 341.806 396.582 343.83 398.945 345.998C402.661 345.013 405.243 342.297 408.243 340.029L409.735 338.865C409.928 339.238 410.148 339.597 410.392 339.939C411.334 339.806 412.292 340.03 413.078 340.566C414.359 341.514 415.576 342.546 416.719 343.655L417.212 344.118C418.483 344.361 419.791 344.325 421.047 344.013C427.942 342.163 434.105 337.417 440.015 333.253C438.851 334.596 437.687 335.954 436.553 337.342C432.24 342.64 425.912 348.401 423.719 355.102C424.01 355.382 424.266 355.698 424.48 356.042C425.301 357.4 426.226 358.758 427.211 360.086C430.466 361.994 433.394 364.413 435.881 367.25C436.361 367.126 436.83 366.967 437.284 366.772C444.224 363.787 449.402 358.206 454.596 352.908C458.312 349.147 461.879 345.252 465.356 341.282C465.56 341.806 465.82 342.307 466.132 342.775C466.98 342.504 467.884 342.459 468.754 342.642C469.625 342.825 470.434 343.231 471.102 343.819C472.594 345.058 474.221 346.192 475.817 347.341C477.239 347.253 478.624 346.856 479.877 346.178C481.129 345.501 482.219 344.558 483.07 343.416C490.816 333.343 512.545 305.868 505.307 290.347C508.926 286.852 511.95 282.789 514.261 278.319C514.747 277.383 515.099 276.383 515.306 275.349Z" fill="white"/>
<path opacity="0.1" d="M282.346 274.439C284.659 277.334 286.584 280.557 289.151 283.393C289.64 283.927 290.002 284.565 290.211 285.258C292.247 285.528 294.317 285.212 296.18 284.348C303.403 281.11 309.985 275.632 315.715 270.23C316.924 269.081 318.178 267.977 319.446 266.887C313.79 273.185 308.164 279.498 302.448 285.736C301.604 286.61 300.943 287.644 300.502 288.776C300.061 289.909 299.85 291.117 299.881 292.332C302.521 295.336 305.434 298.089 308.582 300.555C309.168 300.955 309.675 301.461 310.074 302.048C312.314 301.854 314.385 300.781 315.835 299.063C328.057 285.781 340.161 272.722 353.667 260.813C352.592 262.306 351.488 263.798 350.443 265.395C343.354 275.841 335.758 286.019 327.848 295.929C322.252 302.913 312.611 311.494 310.835 320.747C311.208 321.195 311.567 321.657 311.955 322.105C312.343 322.553 312.969 323.254 313.447 323.806C313.945 323.901 314.421 324.089 314.85 324.359C317.223 325.851 318.73 329.075 316.835 331.671C316.432 332.255 315.926 332.761 315.342 333.164C312.462 336.79 309.656 340.446 306.955 344.222C306.815 344.419 306.686 344.623 306.567 344.834C308.507 350.371 313.089 354.37 317.566 358.161C319.193 357.777 320.662 356.901 321.774 355.654C327.177 349.819 333.34 344.67 338.325 338.476C343.683 331.835 348.1 324.493 353.174 317.583L353.443 317.255C359.576 310.42 365.74 303.6 371.709 296.615C376.918 291.362 382.156 286.169 387.29 281.065C395.393 272.857 403.616 264.649 412.153 256.754C410.034 259.888 407.914 263.007 405.736 266.111C396.125 279.796 385.454 292.705 375.172 305.883C370.098 312.375 365.456 319.165 360.546 325.761C356.666 330.955 350.861 335.701 347.816 341.416C347.187 342.558 346.782 343.809 346.623 345.103C346.973 345.394 347.288 345.724 347.563 346.088C350.111 349.107 353.29 351.532 356.875 353.191C357.668 353.58 358.32 354.206 358.741 354.982C360.179 354.563 361.508 353.835 362.636 352.848C367.461 348.663 372.017 344.177 376.276 339.417C374.879 341.727 373.767 344.197 372.963 346.774C370.545 355.027 379.753 361.101 386.827 357.43L387.439 357.101C388.264 359.466 389.912 361.456 392.081 362.708C394.251 363.96 396.798 364.391 399.259 363.922C401.99 367.563 406.721 369.473 411.063 366.205C428.763 352.684 445.627 337.715 462.341 322.926L466.819 318.867C463.929 323.414 460.811 327.812 457.476 332.044C453.641 336.909 448.298 341.984 446.269 348.028C446.473 348.163 446.668 348.312 446.851 348.475C451.163 352.462 454.798 357.124 457.611 362.28C457.611 362.28 457.611 362.369 457.611 362.414C465.073 360.743 472.863 355.922 479.176 352.296C487.29 347.474 494.957 341.935 502.083 335.745C502.074 334.966 502.211 334.191 502.486 333.462C502.661 333.043 502.861 332.634 503.083 332.238C503.083 331.806 503.083 331.358 503.083 330.91C502.462 329.699 501.963 328.429 501.591 327.119C500.432 326.577 499.449 325.718 498.755 324.642C498.091 323.438 497.766 322.077 497.815 320.702C497.815 320.329 497.905 319.956 497.965 319.583C497.28 319.032 496.784 318.28 496.547 317.434C494.829 317.751 493.229 318.53 491.92 319.687C489.95 321.404 487.951 323.06 485.951 324.687C488.518 320.374 490.995 315.986 493.487 311.793C497.875 304.331 502.442 297.242 507.516 290.258C511.336 284.945 516.47 280.319 517.097 274.439C513.53 271.454 511.053 267.618 507.963 264.111C507.806 263.922 507.661 263.723 507.531 263.514C504.303 263.784 501.208 264.924 498.576 266.813C499.397 265.842 500.203 264.858 500.949 263.828C507.71 254.575 517.261 247.098 523.335 237.457C524.063 236.368 524.57 235.146 524.827 233.861L522.708 231.175C522.11 230.497 521.7 229.675 521.52 228.79C521.339 227.905 521.394 226.988 521.678 226.13L521.529 225.996C521.783 225.698 522.037 225.414 522.275 225.101C523.291 223.812 524.018 222.321 524.409 220.728C521.578 216.297 518.05 212.351 513.963 209.043C508.411 209.446 503.516 213.057 498.606 215.878C495.263 217.808 491.94 219.798 488.637 221.847C490.316 219.751 491.72 217.449 492.816 214.997C493.219 214.045 493.486 213.04 493.607 212.012C493.334 211.861 493.074 211.686 492.831 211.49C488.713 208.504 484.894 205.126 481.429 201.402C480.917 201.592 480.419 201.817 479.937 202.073C476.699 203.839 473.574 205.802 470.579 207.953C471.067 206.573 471.314 205.119 471.311 203.655C470.567 203.759 469.81 203.7 469.092 203.484C468.373 203.267 467.71 202.898 467.147 202.402C464.461 200.088 462.297 197.133 459.685 194.79C458.828 194.999 458.014 195.358 457.282 195.85C450.253 200.611 444.299 206.879 437.583 212.072C435.897 213.385 434.195 214.669 432.494 215.952C432.948 214.62 433.111 213.205 432.971 211.804C432.3 211.624 431.674 211.304 431.136 210.863C427.912 208.267 424.763 205.595 421.585 202.954C420.764 203.249 419.99 203.661 419.286 204.177C416.121 206.44 413.128 208.934 410.332 211.639C410.259 211.078 410.139 210.524 409.974 209.983C409.354 210.269 408.671 210.389 407.99 210.332C407.31 210.274 406.657 210.041 406.094 209.654C403.483 207.792 400.991 205.768 398.632 203.595C394.901 204.58 392.319 207.297 389.319 209.565L387.827 210.729C387.634 210.356 387.414 209.997 387.17 209.654C386.228 209.786 385.271 209.563 384.484 209.028C383.207 208.076 381.99 207.044 380.843 205.938L380.35 205.476C379.079 205.233 377.771 205.269 376.515 205.58C369.635 207.431 363.472 212.177 357.562 216.34C358.711 214.997 359.875 213.639 361.009 212.251C365.322 206.953 371.65 201.193 373.844 194.492C373.556 194.208 373.301 193.892 373.082 193.552C372.262 192.194 371.336 190.836 370.366 189.507C367.104 187.604 364.17 185.185 361.681 182.344C361.206 182.467 360.742 182.627 360.293 182.822C353.353 185.806 348.16 191.388 342.966 196.686C339.265 200.447 335.683 204.342 332.221 208.311C332.012 207.787 331.747 207.286 331.43 206.819C330.582 207.089 329.679 207.135 328.808 206.952C327.937 206.769 327.128 206.363 326.461 205.774C324.968 204.536 323.356 203.401 321.745 202.252C320.323 202.341 318.938 202.737 317.685 203.415C316.433 204.093 315.343 205.036 314.492 206.177C306.746 216.251 285.017 243.725 292.255 259.246C288.65 262.72 285.627 266.752 283.301 271.185C282.831 272.219 282.51 273.315 282.346 274.439Z" fill="white"/>
<g filter="url(#filter0_d_1_658)">
<path d="M376.664 239.784L369.464 263H365.128L360.376 247.816C360.301 247.603 360.227 247.368 360.152 247.112C360.077 246.856 360.008 246.584 359.944 246.296C359.88 246.584 359.811 246.856 359.736 247.112C359.661 247.368 359.587 247.603 359.512 247.816L354.712 263H350.36L343.176 239.784H347.208C347.624 239.784 347.971 239.88 348.248 240.072C348.536 240.264 348.723 240.52 348.808 240.84L352.408 253.928C352.493 254.291 352.579 254.685 352.664 255.112C352.76 255.528 352.851 255.971 352.936 256.44C353.032 255.96 353.133 255.512 353.24 255.096C353.347 254.68 353.464 254.291 353.592 253.928L357.784 240.84C357.869 240.573 358.051 240.333 358.328 240.12C358.616 239.896 358.963 239.784 359.368 239.784H360.776C361.192 239.784 361.528 239.885 361.784 240.088C362.051 240.28 362.248 240.531 362.376 240.84L366.552 253.928C366.68 254.269 366.797 254.643 366.904 255.048C367.011 255.443 367.112 255.864 367.208 256.312C367.293 255.864 367.373 255.443 367.448 255.048C367.533 254.643 367.619 254.269 367.704 253.928L371.304 240.84C371.379 240.563 371.56 240.317 371.848 240.104C372.136 239.891 372.483 239.784 372.888 239.784H376.664ZM387.1 252.808C387.1 252.349 387.036 251.912 386.908 251.496C386.791 251.08 386.599 250.712 386.332 250.392C386.066 250.072 385.73 249.821 385.324 249.64C384.919 249.448 384.434 249.352 383.868 249.352C382.812 249.352 381.986 249.651 381.388 250.248C380.791 250.845 380.402 251.699 380.22 252.808H387.1ZM380.156 255.432C380.295 256.979 380.732 258.109 381.468 258.824C382.215 259.539 383.186 259.896 384.38 259.896C384.988 259.896 385.511 259.827 385.948 259.688C386.396 259.539 386.786 259.379 387.116 259.208C387.458 259.027 387.762 258.867 388.028 258.728C388.306 258.579 388.578 258.504 388.844 258.504C389.186 258.504 389.452 258.632 389.644 258.888L390.924 260.488C390.455 261.032 389.938 261.485 389.372 261.848C388.807 262.2 388.22 262.483 387.612 262.696C387.004 262.899 386.391 263.037 385.772 263.112C385.154 263.197 384.556 263.24 383.98 263.24C382.828 263.24 381.751 263.053 380.748 262.68C379.756 262.296 378.887 261.736 378.14 261C377.404 260.253 376.823 259.331 376.396 258.232C375.97 257.133 375.756 255.859 375.756 254.408C375.756 253.288 375.938 252.232 376.3 251.24C376.674 250.248 377.207 249.384 377.9 248.648C378.594 247.912 379.436 247.331 380.428 246.904C381.42 246.467 382.54 246.248 383.788 246.248C384.844 246.248 385.815 246.419 386.7 246.76C387.596 247.091 388.364 247.576 389.004 248.216C389.655 248.856 390.156 249.645 390.508 250.584C390.871 251.512 391.052 252.573 391.052 253.768C391.052 254.099 391.036 254.371 391.004 254.584C390.972 254.797 390.919 254.968 390.844 255.096C390.77 255.224 390.668 255.315 390.54 255.368C390.412 255.411 390.247 255.432 390.044 255.432H380.156ZM413.157 254.184L410.645 247.08C410.495 246.707 410.335 246.269 410.165 245.768C410.005 245.267 409.85 244.723 409.701 244.136C409.551 244.733 409.391 245.288 409.221 245.8C409.061 246.301 408.906 246.739 408.757 247.112L406.261 254.184H413.157ZM421.221 263H417.493C417.077 263 416.735 262.904 416.469 262.712C416.213 262.509 416.021 262.253 415.893 261.944L414.325 257.512H405.077L403.509 261.944C403.402 262.211 403.215 262.456 402.949 262.68C402.682 262.893 402.346 263 401.941 263H398.181L407.253 239.784H412.165L421.221 263ZM426.874 249.224C427.397 248.285 428 247.544 428.682 247C429.365 246.456 430.165 246.184 431.082 246.184C431.829 246.184 432.437 246.36 432.906 246.712L432.618 249.976C432.565 250.189 432.48 250.339 432.362 250.424C432.256 250.499 432.106 250.536 431.914 250.536C431.744 250.536 431.498 250.515 431.178 250.472C430.858 250.419 430.56 250.392 430.282 250.392C429.877 250.392 429.514 250.451 429.194 250.568C428.885 250.685 428.608 250.851 428.362 251.064C428.117 251.277 427.893 251.539 427.69 251.848C427.498 252.157 427.317 252.509 427.146 252.904V263H422.73V246.504H425.338C425.786 246.504 426.096 246.584 426.266 246.744C426.437 246.904 426.56 247.181 426.634 247.576L426.874 249.224ZM444.882 252.808C444.882 252.349 444.818 251.912 444.69 251.496C444.572 251.08 444.38 250.712 444.114 250.392C443.847 250.072 443.511 249.821 443.106 249.64C442.7 249.448 442.215 249.352 441.65 249.352C440.594 249.352 439.767 249.651 439.17 250.248C438.572 250.845 438.183 251.699 438.002 252.808H444.882ZM437.938 255.432C438.076 256.979 438.514 258.109 439.25 258.824C439.996 259.539 440.967 259.896 442.162 259.896C442.77 259.896 443.292 259.827 443.73 259.688C444.178 259.539 444.567 259.379 444.898 259.208C445.239 259.027 445.543 258.867 445.81 258.728C446.087 258.579 446.359 258.504 446.626 258.504C446.967 258.504 447.234 258.632 447.426 258.888L448.706 260.488C448.236 261.032 447.719 261.485 447.154 261.848C446.588 262.2 446.002 262.483 445.394 262.696C444.786 262.899 444.172 263.037 443.554 263.112C442.935 263.197 442.338 263.24 441.762 263.24C440.61 263.24 439.532 263.053 438.53 262.68C437.538 262.296 436.668 261.736 435.922 261C435.186 260.253 434.604 259.331 434.178 258.232C433.751 257.133 433.538 255.859 433.538 254.408C433.538 253.288 433.719 252.232 434.082 251.24C434.455 250.248 434.988 249.384 435.682 248.648C436.375 247.912 437.218 247.331 438.21 246.904C439.202 246.467 440.322 246.248 441.57 246.248C442.626 246.248 443.596 246.419 444.482 246.76C445.378 247.091 446.146 247.576 446.786 248.216C447.436 248.856 447.938 249.645 448.29 250.584C448.652 251.512 448.834 252.573 448.834 253.768C448.834 254.099 448.818 254.371 448.786 254.584C448.754 254.797 448.7 254.968 448.626 255.096C448.551 255.224 448.45 255.315 448.322 255.368C448.194 255.411 448.028 255.432 447.826 255.432H437.938Z" fill="white"/>
</g>
<g filter="url(#filter1_d_1_658)">
<path d="M356.264 277.544V283.512H364.008V287.144H356.264V293.24H366.216V297H351.432V273.784H366.216V277.544H356.264ZM384.415 297H380.175C379.855 297 379.594 296.92 379.391 296.76C379.199 296.6 379.044 296.413 378.927 296.2L375.679 290.776C375.583 291.139 375.444 291.459 375.263 291.736L372.479 296.2C372.351 296.403 372.191 296.589 371.999 296.76C371.818 296.92 371.583 297 371.295 297H367.359L372.959 288.488L367.583 280.504H371.823C372.143 280.504 372.378 280.547 372.527 280.632C372.676 280.717 372.81 280.856 372.927 281.048L376.159 286.28C376.212 286.099 376.282 285.917 376.367 285.736C376.452 285.544 376.554 285.357 376.671 285.176L379.151 281.128C379.407 280.712 379.738 280.504 380.143 280.504H384.191L378.815 288.296L384.415 297ZM390.646 292.648C391.062 293.128 391.51 293.464 391.99 293.656C392.481 293.848 393.004 293.944 393.558 293.944C394.092 293.944 394.577 293.843 395.014 293.64C395.452 293.437 395.825 293.123 396.134 292.696C396.454 292.259 396.7 291.704 396.87 291.032C397.041 290.36 397.126 289.56 397.126 288.632C397.126 287.715 397.052 286.936 396.902 286.296C396.764 285.656 396.561 285.139 396.294 284.744C396.038 284.349 395.724 284.067 395.35 283.896C394.977 283.715 394.561 283.624 394.102 283.624C393.324 283.624 392.668 283.779 392.134 284.088C391.612 284.387 391.116 284.829 390.646 285.416V292.648ZM390.39 282.664C390.721 282.301 391.073 281.971 391.446 281.672C391.82 281.363 392.22 281.101 392.646 280.888C393.073 280.664 393.532 280.493 394.022 280.376C394.513 280.248 395.046 280.184 395.622 280.184C396.508 280.184 397.318 280.376 398.054 280.76C398.801 281.133 399.441 281.683 399.974 282.408C400.508 283.123 400.924 284.003 401.222 285.048C401.521 286.093 401.67 287.288 401.67 288.632C401.67 289.869 401.5 291.016 401.158 292.072C400.828 293.117 400.353 294.024 399.734 294.792C399.116 295.56 398.369 296.163 397.494 296.6C396.63 297.027 395.665 297.24 394.598 297.24C393.702 297.24 392.94 297.107 392.31 296.84C391.692 296.573 391.137 296.211 390.646 295.752V302.328H386.23V280.504H388.95C389.505 280.504 389.873 280.76 390.054 281.272L390.39 282.664ZM414.975 286.808C414.975 286.349 414.911 285.912 414.783 285.496C414.666 285.08 414.474 284.712 414.207 284.392C413.941 284.072 413.605 283.821 413.199 283.64C412.794 283.448 412.309 283.352 411.743 283.352C410.687 283.352 409.861 283.651 409.263 284.248C408.666 284.845 408.277 285.699 408.095 286.808H414.975ZM408.031 289.432C408.17 290.979 408.607 292.109 409.343 292.824C410.09 293.539 411.061 293.896 412.255 293.896C412.863 293.896 413.386 293.827 413.823 293.688C414.271 293.539 414.661 293.379 414.991 293.208C415.333 293.027 415.637 292.867 415.903 292.728C416.181 292.579 416.453 292.504 416.719 292.504C417.061 292.504 417.327 292.632 417.519 292.888L418.799 294.488C418.33 295.032 417.813 295.485 417.247 295.848C416.682 296.2 416.095 296.483 415.487 296.696C414.879 296.899 414.266 297.037 413.647 297.112C413.029 297.197 412.431 297.24 411.855 297.24C410.703 297.24 409.626 297.053 408.623 296.68C407.631 296.296 406.762 295.736 406.015 295C405.279 294.253 404.698 293.331 404.271 292.232C403.845 291.133 403.631 289.859 403.631 288.408C403.631 287.288 403.813 286.232 404.175 285.24C404.549 284.248 405.082 283.384 405.775 282.648C406.469 281.912 407.311 281.331 408.303 280.904C409.295 280.467 410.415 280.248 411.663 280.248C412.719 280.248 413.69 280.419 414.575 280.76C415.471 281.091 416.239 281.576 416.879 282.216C417.53 282.856 418.031 283.645 418.383 284.584C418.746 285.512 418.927 286.573 418.927 287.768C418.927 288.099 418.911 288.371 418.879 288.584C418.847 288.797 418.794 288.968 418.719 289.096C418.645 289.224 418.543 289.315 418.415 289.368C418.287 289.411 418.122 289.432 417.919 289.432H408.031ZM425.812 283.224C426.334 282.285 426.937 281.544 427.62 281C428.302 280.456 429.102 280.184 430.02 280.184C430.766 280.184 431.374 280.36 431.844 280.712L431.556 283.976C431.502 284.189 431.417 284.339 431.3 284.424C431.193 284.499 431.044 284.536 430.852 284.536C430.681 284.536 430.436 284.515 430.116 284.472C429.796 284.419 429.497 284.392 429.22 284.392C428.814 284.392 428.452 284.451 428.132 284.568C427.822 284.685 427.545 284.851 427.3 285.064C427.054 285.277 426.83 285.539 426.628 285.848C426.436 286.157 426.254 286.509 426.084 286.904V297H421.668V280.504H424.276C424.724 280.504 425.033 280.584 425.204 280.744C425.374 280.904 425.497 281.181 425.572 281.576L425.812 283.224ZM439.426 297.256C438.68 297.256 438.018 297.149 437.442 296.936C436.866 296.712 436.381 296.397 435.986 295.992C435.592 295.587 435.293 295.096 435.09 294.52C434.888 293.944 434.786 293.293 434.786 292.568V283.672H433.234C433 283.672 432.797 283.597 432.626 283.448C432.466 283.299 432.386 283.075 432.386 282.776V281.048L435.026 280.568L435.922 276.296C436.04 275.816 436.365 275.576 436.898 275.576H439.202V280.6H443.458V283.672H439.202V292.28C439.202 292.739 439.309 293.101 439.522 293.368C439.746 293.635 440.061 293.768 440.466 293.768C440.68 293.768 440.861 293.747 441.01 293.704C441.16 293.651 441.288 293.597 441.394 293.544C441.501 293.48 441.597 293.427 441.682 293.384C441.778 293.331 441.874 293.304 441.97 293.304C442.098 293.304 442.205 293.336 442.29 293.4C442.376 293.453 442.461 293.549 442.546 293.688L443.874 295.8C443.266 296.28 442.578 296.643 441.81 296.888C441.042 297.133 440.248 297.256 439.426 297.256Z" fill="white"/>
</g>
<path d="M487.846 259.037L470.654 268.529C470.498 268.6 470.319 268.608 470.157 268.549C469.995 268.491 469.863 268.371 469.789 268.215C469.741 268.145 469.708 268.066 469.691 267.983C469.675 267.899 469.674 267.814 469.691 267.73C469.708 267.647 469.741 267.568 469.788 267.497C469.836 267.427 469.897 267.367 469.968 267.32L486.667 258.112L481.937 248.695C481.894 248.623 481.867 248.543 481.856 248.46C481.845 248.377 481.851 248.293 481.873 248.212C481.896 248.131 481.934 248.056 481.986 247.99C482.038 247.925 482.102 247.87 482.175 247.83C482.338 247.765 482.519 247.766 482.681 247.833C482.843 247.9 482.972 248.027 483.041 248.188L488.055 258.187C488.131 258.329 488.152 258.495 488.113 258.652C488.075 258.809 487.98 258.946 487.846 259.037Z" fill="white"/>
<path d="M493.398 271.29H493.293C493.125 271.334 492.946 271.314 492.792 271.234C492.638 271.154 492.518 271.02 492.457 270.857L489.144 263.171C486.16 264.902 473.922 272.364 472.728 273.23C472.581 273.313 472.407 273.337 472.243 273.295C472.079 273.253 471.937 273.15 471.848 273.006C471.74 272.87 471.69 272.698 471.707 272.525C471.723 272.353 471.806 272.194 471.937 272.081C473.31 271.096 488.353 262.007 488.95 261.634C489.031 261.593 489.121 261.572 489.212 261.572C489.302 261.572 489.392 261.593 489.473 261.634C489.655 261.715 489.803 261.858 489.891 262.037L493.577 270.544C493.636 270.67 493.651 270.813 493.619 270.948C493.586 271.084 493.508 271.205 493.398 271.29Z" fill="white"/>
<path d="M498.576 267.977H498.486C498.318 268.03 498.136 268.016 497.977 267.938C497.819 267.86 497.697 267.724 497.636 267.559L493.785 258.724C493.716 258.579 493.703 258.415 493.747 258.261C493.791 258.107 493.889 257.974 494.024 257.888L511.53 249.173C511.69 249.107 511.87 249.106 512.032 249.17C512.193 249.234 512.323 249.358 512.395 249.516C512.441 249.588 512.471 249.668 512.484 249.752C512.497 249.836 512.493 249.922 512.472 250.004C512.451 250.086 512.414 250.164 512.362 250.231C512.31 250.299 512.246 250.355 512.171 250.396L495.114 258.933L498.71 267.201C498.78 267.326 498.805 267.471 498.78 267.612C498.756 267.753 498.684 267.882 498.576 267.977Z" fill="white"/>
<path d="M508.545 245.815L493.159 255.664C493.008 255.745 492.832 255.764 492.667 255.716C492.503 255.669 492.363 255.559 492.278 255.411L486.16 246.068C486.107 246.001 486.068 245.924 486.045 245.841C486.023 245.759 486.017 245.673 486.028 245.588C486.039 245.503 486.067 245.421 486.11 245.348C486.153 245.274 486.211 245.209 486.279 245.158C486.429 245.08 486.603 245.061 486.766 245.105C486.929 245.149 487.07 245.253 487.16 245.397L492.905 254.172L507.829 244.651C507.98 244.57 508.156 244.551 508.321 244.598C508.485 244.646 508.625 244.756 508.71 244.904C508.76 244.974 508.796 245.054 508.815 245.138C508.835 245.222 508.837 245.309 508.821 245.394C508.806 245.479 508.774 245.56 508.726 245.633C508.679 245.705 508.617 245.767 508.545 245.815Z" fill="white"/>
<path d="M493.711 251.545C493.621 251.601 493.518 251.63 493.413 251.63C493.307 251.63 493.204 251.601 493.114 251.545C492.955 251.462 492.831 251.324 492.765 251.157C492.699 250.99 492.696 250.804 492.756 250.635L497.785 237.845C497.816 237.769 497.863 237.7 497.924 237.644C497.984 237.588 498.056 237.547 498.135 237.522C498.214 237.498 498.297 237.492 498.378 237.504C498.46 237.516 498.538 237.546 498.606 237.592C498.761 237.679 498.882 237.818 498.947 237.983C499.012 238.149 499.018 238.332 498.964 238.502L493.92 251.292C493.876 251.395 493.804 251.483 493.711 251.545Z" fill="white"/>
<path d="M497.383 251.262C497.286 251.328 497.172 251.364 497.055 251.364C496.937 251.364 496.823 251.328 496.726 251.262C496.574 251.169 496.462 251.023 496.41 250.853C496.357 250.683 496.369 250.499 496.443 250.337L502.129 238.816C502.166 238.743 502.219 238.679 502.284 238.63C502.349 238.58 502.424 238.545 502.504 238.528C502.584 238.511 502.667 238.512 502.746 238.531C502.826 238.549 502.901 238.586 502.964 238.637C503.116 238.73 503.229 238.875 503.281 239.046C503.333 239.216 503.322 239.4 503.248 239.562L497.577 251.083C497.525 251.155 497.459 251.216 497.383 251.262Z" fill="white"/>
<path d="M510.247 262.246C510.145 262.311 510.023 262.337 509.904 262.321L496.472 261.007C496.296 260.982 496.134 260.895 496.016 260.761C495.898 260.626 495.832 260.454 495.831 260.276C495.821 260.195 495.83 260.113 495.856 260.037C495.883 259.96 495.927 259.89 495.984 259.833C496.042 259.775 496.111 259.732 496.188 259.705C496.265 259.678 496.347 259.669 496.427 259.679L509.859 260.992C510.036 261.014 510.199 261.098 510.32 261.229C510.44 261.36 510.51 261.531 510.516 261.709C510.524 261.814 510.503 261.92 510.456 262.015C510.409 262.109 510.336 262.189 510.247 262.246Z" fill="white"/>
<path d="M515.231 257.321C515.138 257.382 515.029 257.413 514.918 257.411L499.397 256.724C499.218 256.707 499.051 256.627 498.926 256.499C498.8 256.371 498.724 256.202 498.711 256.023C498.697 255.942 498.702 255.859 498.725 255.78C498.747 255.701 498.787 255.629 498.842 255.567C498.896 255.506 498.963 255.457 499.039 255.425C499.114 255.393 499.196 255.378 499.278 255.381L514.798 256.068C514.978 256.082 515.147 256.161 515.273 256.29C515.399 256.418 515.475 256.589 515.485 256.769C515.501 256.876 515.486 256.985 515.441 257.083C515.396 257.181 515.323 257.264 515.231 257.321Z" fill="white"/>
<path d="M518.738 261.276H518.634C507.784 265.052 476.175 282.274 475.862 282.438C475.705 282.509 475.527 282.517 475.365 282.458C475.203 282.399 475.071 282.28 474.996 282.124C474.949 282.054 474.916 281.975 474.899 281.892C474.882 281.808 474.882 281.722 474.899 281.639C474.916 281.556 474.949 281.477 474.996 281.406C475.044 281.336 475.105 281.276 475.176 281.229C475.489 281.065 506.127 264.38 517.544 260.201C516.052 256.545 508.396 238.01 504.113 233.488C503.993 233.36 503.927 233.192 503.927 233.018C503.927 232.843 503.993 232.675 504.113 232.548C504.169 232.486 504.237 232.438 504.312 232.404C504.388 232.371 504.47 232.354 504.553 232.354C504.636 232.354 504.718 232.371 504.793 232.404C504.869 232.438 504.937 232.486 504.993 232.548C509.888 237.741 518.574 259.41 518.947 260.365C518.998 260.437 519.033 260.519 519.05 260.606C519.067 260.692 519.066 260.781 519.046 260.867C519.026 260.953 518.989 261.034 518.936 261.104C518.882 261.175 518.815 261.233 518.738 261.276Z" fill="white"/>
<path d="M473.355 283.169H473.161C472.986 283.188 472.811 283.142 472.668 283.041C472.525 282.939 472.424 282.788 472.385 282.617C468.699 269.081 459.745 255.993 459.655 255.873C459.597 255.795 459.555 255.706 459.532 255.611C459.509 255.516 459.505 255.418 459.521 255.321C459.532 255.236 459.564 255.156 459.614 255.085C459.663 255.015 459.728 254.958 459.804 254.918C472.176 248.382 501.8 231.458 502.098 231.279C502.255 231.206 502.434 231.196 502.598 231.251C502.763 231.307 502.899 231.424 502.979 231.578C503.076 231.722 503.111 231.899 503.077 232.07C503.044 232.24 502.944 232.391 502.8 232.488C502.516 232.652 473.758 249.068 461.013 255.814C462.864 258.649 470.236 270.335 473.519 282.408C473.591 282.533 473.613 282.679 473.583 282.82C473.553 282.961 473.472 283.085 473.355 283.169Z" fill="white"/>
<path d="M485.19 255.948C485.098 256.011 484.987 256.038 484.876 256.023L466.341 254.978C466.161 254.964 465.992 254.885 465.866 254.756C465.74 254.627 465.665 254.457 465.655 254.277C465.643 254.195 465.65 254.113 465.675 254.035C465.7 253.957 465.741 253.885 465.797 253.825C465.853 253.765 465.921 253.718 465.997 253.688C466.073 253.658 466.155 253.645 466.237 253.65L484.772 254.694C484.949 254.712 485.114 254.792 485.237 254.921C485.361 255.05 485.434 255.218 485.443 255.396C485.46 255.503 485.445 255.612 485.399 255.71C485.354 255.808 485.281 255.891 485.19 255.948Z" fill="white"/>
<path d="M480.638 260.425C480.539 260.486 480.425 260.517 480.309 260.515L464.416 259.47C464.237 259.453 464.07 259.373 463.944 259.245C463.819 259.117 463.742 258.948 463.729 258.769C463.718 258.686 463.725 258.602 463.75 258.523C463.776 258.444 463.819 258.371 463.876 258.311C463.933 258.251 464.004 258.204 464.082 258.175C464.16 258.146 464.243 258.134 464.326 258.142L480.22 259.172C480.397 259.195 480.561 259.28 480.683 259.41C480.806 259.541 480.879 259.709 480.891 259.888C480.901 259.992 480.883 260.097 480.838 260.191C480.794 260.286 480.724 260.367 480.638 260.425Z" fill="white"/>
<path d="M475.086 280.617C474.985 280.693 474.862 280.735 474.735 280.735C474.609 280.735 474.485 280.693 474.384 280.617C474.242 280.512 474.142 280.359 474.103 280.186C474.065 280.013 474.091 279.832 474.175 279.677L483.428 265.096C483.475 265.027 483.536 264.97 483.607 264.927C483.678 264.884 483.758 264.858 483.84 264.849C483.923 264.841 484.006 264.85 484.084 264.878C484.163 264.905 484.234 264.949 484.294 265.007C484.437 265.112 484.536 265.265 484.575 265.438C484.613 265.611 484.588 265.791 484.503 265.947L475.25 280.513C475.204 280.559 475.148 280.595 475.086 280.617Z" fill="white"/>
<path d="M482.772 275.707C482.661 275.769 482.535 275.795 482.409 275.781C482.283 275.768 482.165 275.716 482.07 275.633C481.927 275.528 481.827 275.375 481.789 275.202C481.751 275.029 481.776 274.848 481.861 274.692L488.04 264.947C488.087 264.879 488.147 264.822 488.218 264.78C488.288 264.737 488.367 264.71 488.449 264.7C488.531 264.69 488.614 264.698 488.692 264.722C488.771 264.747 488.844 264.788 488.905 264.843C489.048 264.948 489.148 265.101 489.186 265.274C489.225 265.447 489.199 265.627 489.114 265.783L482.936 275.543C482.893 275.609 482.837 275.664 482.772 275.707Z" fill="white"/>
<path d="M478.37 303.973C478.176 304.003 477.978 303.956 477.819 303.841C477.66 303.727 477.552 303.554 477.519 303.361C472.012 271.603 458.238 254.918 458.118 254.754C458.054 254.68 458.006 254.594 457.976 254.501C457.945 254.408 457.934 254.31 457.942 254.213C457.951 254.116 457.979 254.021 458.024 253.934C458.07 253.848 458.132 253.771 458.208 253.71C458.361 253.583 458.558 253.522 458.756 253.539C458.954 253.555 459.137 253.649 459.267 253.799C459.402 253.963 473.43 270.932 478.997 303.048C479.014 303.145 479.011 303.244 478.99 303.34C478.968 303.436 478.928 303.527 478.871 303.608C478.814 303.688 478.742 303.757 478.658 303.809C478.575 303.862 478.482 303.897 478.385 303.913L478.37 303.973Z" fill="white"/>
<g opacity="0.4">
<path d="M521.782 347.356C521.709 347.378 521.631 347.378 521.558 347.356L510.903 339.79C509.052 340.64 495.293 346.401 485.368 336.402C481.085 332.104 480.891 325.478 484.921 319.508C487.692 315.367 491.827 312.328 496.607 310.921C501.387 309.514 506.509 309.828 511.082 311.808C517.201 314.375 520.827 317.777 521.857 322.045C523.349 328.239 518.768 333.761 518.574 333.984C518.545 334.028 518.507 334.065 518.462 334.093C518.418 334.121 518.368 334.14 518.316 334.147C518.264 334.155 518.211 334.151 518.16 334.137C518.11 334.122 518.063 334.097 518.023 334.063C517.982 334.029 517.95 333.988 517.927 333.94C517.904 333.893 517.892 333.841 517.89 333.789C517.889 333.736 517.898 333.684 517.918 333.635C517.938 333.587 517.968 333.543 518.007 333.507C518.007 333.507 522.484 328.015 521.126 322.21C520.156 318.21 516.649 314.942 510.784 312.479C506.368 310.577 501.426 310.282 496.816 311.645C492.205 313.008 488.218 315.944 485.547 319.941C482.563 324.418 481.07 331 485.891 335.895C496.128 346.177 510.619 339.118 510.769 339.044C510.828 339.011 510.895 338.994 510.963 338.994C511.03 338.994 511.097 339.011 511.157 339.044L520.484 345.64L516.813 339.521C516.782 339.479 516.761 339.431 516.75 339.38C516.739 339.329 516.739 339.276 516.749 339.225C516.76 339.174 516.782 339.125 516.812 339.083C516.843 339.041 516.882 339.005 516.927 338.979C516.972 338.953 517.022 338.936 517.074 338.931C517.126 338.925 517.179 338.93 517.228 338.946C517.278 338.962 517.324 338.988 517.363 339.023C517.402 339.058 517.433 339.1 517.454 339.148L522.096 346.819C522.145 346.886 522.172 346.967 522.172 347.05C522.172 347.134 522.145 347.215 522.096 347.282C522.054 347.319 522.003 347.345 521.948 347.358C521.894 347.371 521.837 347.37 521.782 347.356Z" fill="white"/>
</g>
<g opacity="0.4">
<path d="M305.582 360.773C305.527 360.772 305.474 360.76 305.425 360.737C305.376 360.714 305.333 360.68 305.298 360.638C305.248 360.572 305.222 360.49 305.222 360.407C305.222 360.324 305.248 360.243 305.298 360.176L308.925 355.326L295.881 355.803C295.832 355.805 295.783 355.797 295.737 355.78C295.691 355.764 295.649 355.738 295.613 355.704C295.577 355.671 295.548 355.631 295.527 355.587C295.507 355.542 295.495 355.494 295.493 355.445C295.493 355.347 295.53 355.253 295.596 355.181C295.662 355.109 295.754 355.064 295.851 355.057L309.686 354.55C309.755 354.548 309.823 354.566 309.884 354.6C309.944 354.634 309.994 354.683 310.029 354.744C310.062 354.806 310.079 354.875 310.079 354.945C310.079 355.015 310.062 355.084 310.029 355.146L306.82 359.43L313.924 356.116C313.973 356.102 314.024 356.102 314.073 356.116H332.609V335.313C317.595 335.119 295.299 334.97 293.449 335.313C293.165 336.268 294.254 342.416 295.493 347.968C295.504 348.016 295.506 348.066 295.497 348.114C295.489 348.163 295.471 348.209 295.445 348.251C295.418 348.293 295.384 348.329 295.344 348.357C295.303 348.385 295.258 348.405 295.21 348.416C295.162 348.427 295.114 348.428 295.066 348.419C295.018 348.411 294.973 348.393 294.933 348.366C294.892 348.34 294.858 348.306 294.831 348.265C294.804 348.225 294.786 348.18 294.777 348.132C292.867 339.611 292.285 335.074 293.031 334.701C293.777 334.328 323.848 334.537 332.997 334.701C333.093 334.705 333.184 334.746 333.251 334.815C333.318 334.885 333.355 334.978 333.355 335.074V356.594C333.355 356.693 333.315 356.788 333.245 356.858C333.175 356.928 333.081 356.967 332.982 356.967H314.133L305.761 360.877L305.582 360.773Z" fill="white"/>
</g>
<g opacity="0.4">
<path d="M497.964 224.608C497.905 224.608 497.847 224.592 497.794 224.564C497.742 224.535 497.698 224.494 497.666 224.444L491.875 216.579L470.609 219.161C470.562 219.167 470.513 219.164 470.467 219.151C470.421 219.138 470.378 219.116 470.34 219.086C470.3 219.057 470.267 219.019 470.244 218.975C470.221 218.931 470.208 218.882 470.206 218.833L467.52 196.253C467.513 196.203 467.515 196.152 467.528 196.104C467.541 196.055 467.564 196.009 467.595 195.969C467.667 195.896 467.761 195.849 467.863 195.835L500.576 193.268C500.674 193.264 500.77 193.297 500.845 193.36C500.92 193.424 500.968 193.514 500.979 193.611C500.983 193.71 500.95 193.806 500.887 193.881C500.823 193.955 500.733 194.003 500.636 194.014L468.251 196.537L470.833 218.295L491.935 215.743C492 215.736 492.067 215.746 492.127 215.772C492.187 215.798 492.239 215.84 492.278 215.893L496.756 221.862L494.636 215.893C494.615 215.846 494.604 215.795 494.604 215.743C494.604 215.692 494.615 215.641 494.636 215.594C494.663 215.546 494.7 215.504 494.743 215.471C494.787 215.438 494.837 215.414 494.89 215.4L502.785 213.908L500.785 197.745C500.776 197.647 500.805 197.549 500.866 197.471C500.927 197.394 501.016 197.342 501.113 197.327C501.162 197.321 501.212 197.325 501.26 197.338C501.307 197.351 501.352 197.374 501.391 197.404C501.43 197.435 501.462 197.473 501.486 197.516C501.51 197.559 501.526 197.607 501.531 197.656L503.576 214.161C503.582 214.257 503.553 214.352 503.496 214.428C503.438 214.505 503.356 214.558 503.262 214.579L495.457 216.072L498.293 223.996C498.322 224.082 498.319 224.175 498.287 224.26C498.254 224.344 498.193 224.415 498.114 224.459C498.078 224.521 498.027 224.573 497.964 224.608Z" fill="white"/>
</g>
<g opacity="0.4">
<path d="M307.627 225.115C298.523 225.115 288.136 221.399 285.823 214.281C282.033 202.625 295.225 195.566 297.628 194.402L291.748 183.821C291.71 183.745 291.698 183.658 291.714 183.575C291.731 183.491 291.774 183.415 291.838 183.359C291.903 183.307 291.985 183.278 292.069 183.278C292.153 183.278 292.234 183.307 292.3 183.359L302.448 190.686C302.496 190.711 302.538 190.745 302.572 190.788C302.605 190.83 302.629 190.879 302.641 190.931C302.654 190.984 302.655 191.038 302.644 191.091C302.634 191.144 302.612 191.194 302.58 191.237C302.549 191.281 302.508 191.317 302.461 191.344C302.414 191.37 302.362 191.386 302.309 191.39C302.255 191.395 302.201 191.387 302.15 191.369C302.1 191.35 302.054 191.321 302.016 191.283L293.225 184.941L298.479 194.402C298.501 194.449 298.513 194.5 298.513 194.552C298.513 194.603 298.501 194.654 298.479 194.701C298.445 194.797 298.375 194.877 298.285 194.925C298.12 194.925 282.585 201.969 286.51 214.072C288.435 219.967 297.479 224.384 307.612 224.384H307.761C317.984 224.384 325.446 220.011 327.714 212.803C328.337 211.204 328.567 209.48 328.385 207.774C328.203 206.068 327.615 204.43 326.67 202.998C321.491 195.641 306.433 194.954 306.284 194.954C306.235 194.953 306.187 194.941 306.142 194.92C306.098 194.9 306.057 194.871 306.024 194.835C305.991 194.799 305.965 194.756 305.948 194.71C305.931 194.664 305.924 194.615 305.926 194.566C305.925 194.517 305.936 194.468 305.955 194.422C305.975 194.377 306.004 194.336 306.041 194.302C306.077 194.268 306.12 194.243 306.167 194.226C306.214 194.21 306.264 194.204 306.314 194.208C306.94 194.208 321.879 194.91 327.281 202.566C328.293 204.089 328.925 205.833 329.122 207.651C329.319 209.469 329.077 211.307 328.416 213.012C326.043 220.549 318.327 225.056 307.776 225.115H307.627Z" fill="white"/>
</g>
<g opacity="0.4">
<path d="M378.932 207.879C378.843 207.88 378.756 207.849 378.688 207.791C378.619 207.734 378.574 207.653 378.559 207.565L377.41 199.268L369.128 197.775C369.044 197.762 368.968 197.721 368.911 197.658C368.854 197.596 368.82 197.516 368.814 197.432C368.811 197.345 368.837 197.259 368.889 197.189C368.94 197.118 369.014 197.067 369.098 197.044L377.38 194.835V183.911C377.38 183.812 377.42 183.717 377.49 183.647C377.56 183.577 377.655 183.538 377.754 183.538C377.852 183.538 377.947 183.577 378.017 183.647C378.087 183.717 378.127 183.812 378.127 183.911V195.119C378.126 195.201 378.097 195.281 378.046 195.346C377.995 195.411 377.923 195.457 377.843 195.477L370.918 197.327L377.813 198.536C377.891 198.546 377.964 198.583 378.018 198.64C378.072 198.697 378.105 198.771 378.112 198.85L379.246 207.073L415.167 204.954V182.046H380.708C380.609 182.046 380.515 182.006 380.445 181.936C380.375 181.866 380.335 181.771 380.335 181.672C380.335 181.573 380.375 181.479 380.445 181.409C380.515 181.339 380.609 181.299 380.708 181.299H415.541C415.638 181.303 415.731 181.344 415.8 181.413C415.869 181.482 415.91 181.575 415.914 181.672V205.342C415.91 205.437 415.872 205.528 415.806 205.596C415.74 205.665 415.651 205.707 415.555 205.715L378.947 207.879H378.932Z" fill="white"/>
</g>
<g opacity="0.4">
<path d="M412.302 365.429C412.241 365.428 412.18 365.413 412.126 365.385C412.071 365.356 412.024 365.315 411.989 365.265L407.512 358.609C407.484 358.568 407.464 358.522 407.454 358.473C407.445 358.424 407.444 358.374 407.454 358.326C407.464 358.277 407.483 358.231 407.511 358.19C407.539 358.149 407.575 358.114 407.616 358.086C407.656 358.059 407.701 358.04 407.748 358.03C407.796 358.02 407.845 358.02 407.892 358.03C407.94 358.04 407.985 358.059 408.024 358.087C408.064 358.114 408.098 358.15 408.123 358.191L412.048 364.026L412.81 358.34C412.823 358.264 412.858 358.194 412.911 358.138C412.964 358.082 413.033 358.043 413.108 358.027C413.198 358.027 422.614 355.893 425.331 350.774C425.778 349.914 426.025 348.963 426.054 347.994C426.082 347.025 425.891 346.062 425.495 345.177C423.331 339.76 410.571 338.865 400.438 341.446C393.379 343.237 389.23 346.312 389.603 349.475C390.678 358.504 396.692 358.042 396.946 358.027C396.994 358.021 397.043 358.024 397.09 358.038C397.136 358.051 397.18 358.074 397.218 358.104C397.255 358.135 397.286 358.173 397.309 358.216C397.331 358.259 397.345 358.307 397.349 358.355C397.357 358.453 397.328 358.551 397.267 358.629C397.206 358.707 397.118 358.758 397.02 358.773C396.946 358.773 390.036 359.34 388.872 349.565C388.439 345.953 392.692 342.64 400.244 340.715C409.482 338.357 423.629 338.506 426.181 344.909C426.621 345.891 426.832 346.96 426.799 348.035C426.765 349.111 426.488 350.164 425.987 351.117C423.346 356.116 415.108 358.31 413.526 358.698L412.66 365.101C412.648 365.175 412.615 365.244 412.565 365.299C412.515 365.355 412.449 365.395 412.377 365.414L412.302 365.429Z" fill="white"/>
</g>
<path d="M299.523 251.545C299.615 251.601 299.721 251.63 299.829 251.63C299.937 251.63 300.042 251.601 300.135 251.545C300.292 251.46 300.414 251.322 300.479 251.155C300.545 250.989 300.55 250.805 300.493 250.635L295.464 237.845C295.433 237.769 295.386 237.7 295.325 237.644C295.265 237.588 295.192 237.547 295.114 237.522C295.035 237.498 294.952 237.492 294.87 237.504C294.789 237.516 294.711 237.546 294.643 237.592C294.486 237.677 294.364 237.815 294.298 237.982C294.233 238.148 294.228 238.332 294.285 238.502L299.314 251.292C299.358 251.395 299.43 251.483 299.523 251.545Z" fill="white"/>
<path d="M295.866 251.262C295.963 251.328 296.078 251.364 296.195 251.364C296.312 251.364 296.426 251.328 296.523 251.262C296.673 251.167 296.783 251.021 296.835 250.852C296.887 250.682 296.877 250.5 296.807 250.337L291.121 238.816C291.083 238.743 291.03 238.679 290.965 238.63C290.9 238.58 290.825 238.545 290.745 238.528C290.665 238.511 290.583 238.512 290.503 238.531C290.423 238.549 290.349 238.586 290.285 238.637C290.133 238.73 290.019 238.874 289.964 239.044C289.91 239.214 289.917 239.397 289.986 239.562L295.672 251.083C295.721 251.158 295.788 251.22 295.866 251.262Z" fill="white"/>
<path d="M283.003 262.246C283.105 262.311 283.226 262.337 283.346 262.321L296.777 261.007C296.956 260.983 297.119 260.896 297.24 260.762C297.36 260.628 297.429 260.456 297.434 260.276C297.444 260.195 297.435 260.113 297.408 260.037C297.382 259.96 297.338 259.89 297.28 259.833C297.223 259.775 297.153 259.732 297.076 259.705C297 259.678 296.918 259.669 296.837 259.679L283.406 260.992C283.23 261.014 283.068 261.098 282.95 261.23C282.832 261.362 282.766 261.532 282.764 261.709C282.752 261.811 282.768 261.915 282.81 262.01C282.852 262.104 282.919 262.186 283.003 262.246Z" fill="white"/>
<path d="M278.003 257.321C278.101 257.382 278.215 257.413 278.331 257.411L293.852 256.724C294.03 256.704 294.195 256.624 294.32 256.496C294.445 256.368 294.522 256.201 294.538 256.023C294.549 255.941 294.542 255.858 294.518 255.779C294.493 255.7 294.452 255.628 294.396 255.567C294.341 255.506 294.273 255.457 294.197 255.425C294.121 255.393 294.039 255.378 293.956 255.381L278.436 256.067C278.258 256.087 278.092 256.168 277.967 256.296C277.842 256.424 277.765 256.591 277.749 256.769C277.738 256.875 277.756 256.983 277.8 257.08C277.845 257.177 277.915 257.26 278.003 257.321Z" fill="white"/>
<path d="M274.511 261.276H274.615C285.465 265.052 317.059 282.274 317.387 282.438C317.544 282.509 317.722 282.517 317.884 282.458C318.046 282.4 318.178 282.28 318.253 282.124C318.3 282.054 318.333 281.975 318.35 281.892C318.367 281.808 318.367 281.723 318.35 281.639C318.333 281.556 318.3 281.477 318.253 281.406C318.205 281.336 318.144 281.276 318.073 281.229C317.76 281.065 287.122 264.38 275.705 260.201C277.197 256.545 284.838 238.01 289.136 233.488C289.253 233.359 289.317 233.191 289.317 233.018C289.317 232.844 289.253 232.677 289.136 232.548C289.079 232.486 289.01 232.437 288.933 232.404C288.856 232.37 288.773 232.353 288.689 232.353C288.605 232.353 288.521 232.37 288.444 232.404C288.367 232.437 288.298 232.486 288.241 232.548C283.361 237.741 274.675 259.41 274.302 260.366C274.251 260.437 274.216 260.519 274.199 260.606C274.182 260.692 274.183 260.781 274.203 260.867C274.223 260.953 274.26 261.034 274.313 261.104C274.367 261.175 274.434 261.233 274.511 261.276Z" fill="white"/>
<path d="M319.894 283.169H320.088C320.262 283.185 320.436 283.138 320.578 283.037C320.721 282.935 320.822 282.786 320.864 282.617C324.55 269.081 333.505 255.993 333.594 255.873C333.699 255.71 333.742 255.514 333.714 255.321C333.707 255.235 333.678 255.151 333.628 255.08C333.578 255.009 333.509 254.953 333.43 254.918C321.073 248.382 291.449 231.458 291.151 231.279C290.994 231.206 290.815 231.196 290.651 231.251C290.487 231.307 290.35 231.424 290.271 231.578C290.172 231.72 290.134 231.896 290.165 232.067C290.196 232.237 290.293 232.389 290.435 232.488C290.733 232.652 319.476 249.068 332.221 255.814C330.371 258.649 322.998 270.335 319.7 282.408C319.638 282.537 319.623 282.685 319.659 282.824C319.694 282.963 319.778 283.085 319.894 283.169Z" fill="white"/>
<path d="M308.044 255.948C308.142 256.011 308.258 256.037 308.373 256.023L326.908 254.978C327.085 254.96 327.25 254.88 327.374 254.751C327.497 254.623 327.57 254.454 327.58 254.277C327.593 254.196 327.589 254.114 327.566 254.036C327.543 253.958 327.503 253.886 327.449 253.825C327.394 253.765 327.326 253.718 327.251 253.687C327.175 253.657 327.094 253.644 327.013 253.65L308.477 254.694C308.298 254.712 308.131 254.791 308.006 254.92C307.88 255.048 307.804 255.217 307.791 255.396C307.78 255.502 307.797 255.609 307.842 255.707C307.887 255.804 307.957 255.887 308.044 255.948Z" fill="white"/>
<path d="M312.611 260.425C312.709 260.488 312.823 260.519 312.939 260.515L328.833 259.47C329.011 259.452 329.176 259.372 329.299 259.243C329.422 259.115 329.495 258.946 329.505 258.769C329.519 258.687 329.514 258.603 329.491 258.524C329.467 258.444 329.426 258.372 329.369 258.311C329.313 258.25 329.243 258.203 329.166 258.174C329.088 258.145 329.005 258.134 328.923 258.142L313.029 259.171C312.849 259.189 312.682 259.272 312.559 259.404C312.435 259.535 312.364 259.707 312.357 259.888C312.34 259.993 312.355 260.1 312.4 260.196C312.446 260.292 312.519 260.372 312.611 260.425Z" fill="white"/>
<path d="M318.163 280.617C318.265 280.691 318.388 280.731 318.513 280.731C318.639 280.731 318.762 280.691 318.864 280.617C319.007 280.512 319.107 280.359 319.145 280.186C319.184 280.013 319.158 279.832 319.073 279.677L309.82 265.096C309.774 265.027 309.713 264.97 309.642 264.927C309.571 264.884 309.491 264.858 309.409 264.849C309.326 264.841 309.243 264.85 309.164 264.878C309.086 264.905 309.014 264.949 308.955 265.007C308.812 265.112 308.712 265.265 308.674 265.438C308.635 265.611 308.661 265.791 308.746 265.947L317.999 280.513C318.045 280.559 318.101 280.595 318.163 280.617Z" fill="white"/>
<path d="M310.477 275.707C310.587 275.769 310.714 275.795 310.84 275.781C310.965 275.768 311.084 275.716 311.178 275.633C311.321 275.528 311.421 275.375 311.46 275.202C311.498 275.029 311.472 274.848 311.387 274.693L305.209 264.903C305.162 264.835 305.101 264.778 305.031 264.735C304.96 264.692 304.882 264.665 304.8 264.655C304.718 264.645 304.635 264.653 304.556 264.678C304.478 264.702 304.405 264.743 304.343 264.798C304.198 264.901 304.096 265.054 304.057 265.228C304.019 265.402 304.046 265.584 304.134 265.738L310.313 275.498C310.35 275.58 310.407 275.652 310.477 275.707Z" fill="white"/>
<path d="M314.879 303.973C315.073 304.003 315.271 303.956 315.43 303.841C315.589 303.727 315.697 303.554 315.73 303.361C321.222 271.603 334.997 254.918 335.131 254.754C335.258 254.602 335.319 254.405 335.3 254.208C335.282 254.011 335.186 253.829 335.034 253.702C334.882 253.575 334.685 253.515 334.488 253.533C334.291 253.551 334.109 253.647 333.982 253.799C333.848 253.963 319.819 270.932 314.253 303.048C314.218 303.241 314.261 303.441 314.373 303.603C314.485 303.765 314.656 303.877 314.85 303.913L314.879 303.973Z" fill="white"/>
<path d="M613.011 377.099C613.011 377.099 582.522 362.981 541.556 368.607C541.556 368.607 549.615 286.288 552.331 275.259C555.047 264.231 613.519 277.901 613.519 277.901C613.519 277.901 609.325 310.733 609.683 330.97C610.042 351.206 615.653 373.681 613.011 377.099Z" fill="#263238"/>
<path opacity="0.4" d="M613.011 377.099C613.011 377.099 582.522 362.981 541.556 368.607C541.556 368.607 549.615 286.288 552.331 275.259C555.047 264.231 613.519 277.901 613.519 277.901C613.519 277.901 609.325 310.733 609.683 330.97C610.042 351.206 615.653 373.681 613.011 377.099Z" fill="white"/>
<path d="M525.558 580.048L536.154 583.047L538.676 566.556L540.049 557.737L529.438 554.737L527.648 566.556L525.558 580.048Z" fill="#FBC6BF"/>
<path d="M586.492 580.913L597.416 582.361L597.521 566.556L597.596 556.737L586.642 555.304L586.582 566.556L586.492 580.913Z" fill="#FBC6BF"/>
<path opacity="0.2" d="M586.641 555.304L586.581 566.556H597.52L597.595 556.737L586.641 555.304Z" fill="black"/>
<path opacity="0.2" d="M527.648 566.556H538.676L540.049 557.737L529.439 554.737L527.648 566.556Z" fill="black"/>
<path d="M485.19 268.409L476.116 262.246L474.295 274.274C474.295 274.274 482.712 279.289 485.115 274.827L485.19 268.409Z" fill="#FBC6BF"/>
<path d="M465.266 261.709L467.206 272.573L474.295 274.275L476.116 262.246L465.266 261.709Z" fill="#FBC6BF"/>
<path d="M498.084 275.752L482.817 266.812L478.757 274.319L492.532 282.751L498.084 275.752Z" fill="#FBC6BF"/>
<path d="M554.197 256.485C549.72 257.799 525.11 288.213 523.454 287.915C521.26 287.527 489.383 268.977 489.383 268.977L483.831 282.169C483.831 282.169 515.171 306.48 523.857 305.808C531.737 305.197 557.973 281.229 557.973 281.229L554.197 256.485Z" fill="#263238"/>
<path opacity="0.7" d="M483.817 282.169C483.817 282.169 515.157 306.48 523.857 305.808C527.215 305.555 533.931 301.033 540.512 295.929C549.347 289.094 557.988 281.214 557.988 281.214L555.928 267.783L554.197 256.456C549.72 257.769 525.111 288.183 523.454 287.885C521.26 287.497 489.383 268.932 489.383 268.932L483.817 282.169Z" fill="white"/>
<path opacity="0.1" d="M540.512 295.929C549.347 289.094 557.987 281.214 557.987 281.214L555.928 267.782C555.392 268.077 554.891 268.433 554.436 268.842C547.989 274.274 542.347 284.691 540.512 295.929Z" fill="black"/>
<path d="M525.693 578.391L537.736 578.063C537.955 578.057 538.169 578.126 538.343 578.259C538.517 578.392 538.64 578.581 538.691 578.794L541.228 588.479C541.289 588.711 541.297 588.954 541.251 589.189C541.205 589.424 541.106 589.646 540.963 589.838C540.82 590.03 540.635 590.188 540.423 590.299C540.21 590.41 539.975 590.471 539.736 590.479C535.393 590.479 529.11 590.479 523.663 590.584C517.276 590.748 513.216 590.434 505.754 590.584C501.277 590.703 499.785 586.181 501.695 585.719C510.247 583.614 515.828 584.032 523.111 579.257C523.876 578.738 524.769 578.439 525.693 578.391Z" fill="#263238"/>
<path d="M524.663 579.928C522.902 580.331 519.753 580.853 518.514 579.809C518.334 579.659 518.191 579.469 518.098 579.254C518.004 579.038 517.963 578.804 517.977 578.57C517.978 578.426 518.016 578.285 518.086 578.16C518.157 578.035 518.258 577.929 518.38 577.854C519.693 577.063 524.2 579.197 524.708 579.436C524.757 579.46 524.798 579.498 524.825 579.547C524.851 579.595 524.862 579.65 524.857 579.704C524.857 579.759 524.838 579.812 524.802 579.853C524.767 579.894 524.717 579.921 524.663 579.928ZM518.693 578.272H518.589C518.541 578.301 518.502 578.343 518.475 578.393C518.449 578.443 518.437 578.499 518.44 578.555C518.426 578.712 518.45 578.869 518.51 579.015C518.57 579.16 518.663 579.289 518.783 579.391C519.484 579.973 521.305 580.018 523.723 579.555C521.977 578.809 519.529 577.973 518.723 578.301L518.693 578.272Z" fill="#80BCFF"/>
<path d="M524.663 579.928C524.633 579.943 524.6 579.95 524.566 579.95C524.532 579.95 524.499 579.943 524.469 579.928C523.126 579.376 520.395 577.078 520.559 575.824C520.559 575.54 520.798 575.167 521.499 575.078C521.762 575.034 522.032 575.048 522.289 575.117C522.546 575.187 522.786 575.311 522.991 575.481C524.484 576.585 524.842 579.54 524.857 579.659C524.862 579.703 524.856 579.748 524.841 579.789C524.825 579.831 524.8 579.868 524.767 579.898L524.663 579.928ZM521.305 575.645C521.096 575.735 521.081 575.854 521.081 575.899C520.977 576.645 522.842 578.451 524.23 579.227C524.056 577.977 523.504 576.811 522.648 575.884C522.342 575.649 521.957 575.542 521.574 575.585L521.305 575.645Z" fill="#80BCFF"/>
<path d="M586.925 578.391L598.953 578.063C599.173 578.058 599.389 578.128 599.564 578.261C599.74 578.393 599.867 578.581 599.923 578.794L602.445 588.479C602.509 588.711 602.519 588.955 602.474 589.191C602.429 589.428 602.331 589.651 602.188 589.844C602.044 590.036 601.858 590.194 601.644 590.304C601.43 590.414 601.194 590.474 600.953 590.479C596.61 590.479 590.327 590.479 584.865 590.584C578.493 590.748 574.419 590.434 566.957 590.584C562.48 590.703 560.987 586.181 562.882 585.718C571.434 583.614 577.03 584.032 584.313 579.256C585.087 578.733 585.991 578.433 586.925 578.391Z" fill="#263238"/>
<path d="M585.895 579.928C584.134 580.331 581 580.853 579.746 579.809C579.566 579.659 579.423 579.469 579.33 579.254C579.236 579.038 579.195 578.804 579.209 578.57C579.213 578.425 579.254 578.284 579.327 578.159C579.4 578.033 579.503 577.929 579.627 577.854C580.94 577.063 585.447 579.197 585.955 579.436C586.004 579.46 586.045 579.498 586.072 579.547C586.098 579.595 586.11 579.65 586.104 579.704C586.101 579.76 586.078 579.813 586.04 579.854C586.002 579.895 585.951 579.921 585.895 579.928ZM579.926 578.272H579.836C579.788 578.302 579.748 578.344 579.72 578.393C579.691 578.443 579.675 578.498 579.672 578.555C579.661 578.713 579.688 578.871 579.75 579.016C579.813 579.161 579.909 579.29 580.03 579.391C580.717 579.973 582.537 580.018 584.955 579.555C583.164 578.809 580.761 577.973 579.94 578.301L579.926 578.272Z" fill="#80BCFF"/>
<path d="M585.895 579.928C585.865 579.943 585.832 579.95 585.798 579.95C585.765 579.95 585.732 579.943 585.701 579.928C584.343 579.376 581.627 577.078 581.791 575.824C581.791 575.54 582.015 575.167 582.732 575.078C582.995 575.034 583.264 575.048 583.522 575.117C583.779 575.187 584.018 575.311 584.224 575.481C585.716 576.585 586.075 579.54 586.089 579.659C586.095 579.705 586.089 579.751 586.07 579.793C586.052 579.835 586.022 579.872 585.985 579.898L585.895 579.928ZM582.538 575.645C582.479 575.662 582.426 575.695 582.384 575.739C582.342 575.784 582.312 575.839 582.299 575.899C582.209 576.645 584.06 578.451 585.448 579.227C585.3 577.987 584.78 576.821 583.955 575.884C583.649 575.649 583.264 575.542 582.881 575.585L582.538 575.645Z" fill="#80BCFF"/>
<path d="M609.027 340.715C614.802 365.817 604.878 563.184 604.878 563.184H585.686L577.478 398.694L547.242 563.184L526.737 561.691C540.168 434.272 552.003 358.206 552.003 358.206V348.595L609.027 340.715Z" fill="#263238"/>
<path opacity="0.5" d="M526.737 561.691L547.257 563.184L571.046 433.705L577.478 398.709L585.686 563.184H604.878C604.878 563.184 614.817 365.817 609.027 340.73L551.973 348.595V358.206C551.973 358.206 540.153 434.272 526.737 561.691Z" fill="white"/>
<path d="M609.668 317.732C609.668 319.359 609.668 320.941 609.668 322.478C609.668 323.299 609.668 324.105 609.668 324.896C609.668 326.597 609.668 328.254 609.668 329.836C609.668 330.642 609.668 331.433 609.668 332.209C609.862 341.506 610.206 348.311 609.997 351.251L552.451 349.117C551.297 342.352 550.421 335.949 549.824 329.91C549.749 329.179 549.675 328.418 549.615 327.731C549.466 326.239 549.347 324.747 549.227 323.254C549.227 322.493 549.123 321.762 549.063 321.001C548.973 319.508 548.884 318.016 548.809 316.643C548.809 315.852 548.735 315.151 548.72 314.315C547.227 276.095 555.629 256.232 555.629 256.232C560.133 255.243 564.694 254.53 569.285 254.098C570.255 253.993 571.24 253.933 572.269 253.874C580.434 253.708 588.6 254.012 596.729 254.784C598.222 254.918 599.834 255.097 601.356 255.291C609.101 256.291 615.936 257.948 615.936 257.948C613.269 269.657 611.488 281.55 610.609 293.526C609.997 301.182 609.713 308.45 609.624 315.255C609.624 315.867 609.624 316.479 609.624 317.076L609.668 317.732Z" fill="#263238"/>
<g opacity="0.3">
<path d="M609.699 315.255C609.699 315.867 609.699 316.479 609.699 317.076V317.732L603.819 325.284L592.536 309.509L582.343 322.941L572.3 309.509L563.45 321.448L554.496 309.435L548.839 316.643C548.839 315.852 548.765 315.151 548.75 314.315L554.346 307.017L563.301 318.956L572.15 307.017L582.209 320.448L592.447 307.017L603.744 322.806L609.699 315.255Z" fill="white"/>
<path d="M609.653 324.896L603.579 332.716L592.297 316.956L582.089 330.388L572.06 316.956L563.196 328.895L554.241 316.867L549.376 323.195C549.376 322.433 549.272 321.702 549.212 320.941L554.241 314.404L563.196 326.343L572.06 314.404L582.119 327.836L592.342 314.404L603.639 330.194L609.609 322.448C609.639 323.299 609.639 324.105 609.653 324.896Z" fill="white"/>
<path d="M609.758 332.208L603.58 340.163L592.297 324.388L582.089 337.745L572.061 324.314L563.196 336.327L554.242 324.299L549.974 329.851C549.899 329.119 549.824 328.358 549.765 327.672L554.242 321.836L563.196 333.775L572.061 321.836L582.119 335.268L592.342 321.836L603.639 337.611L609.728 329.791C609.738 330.627 609.748 331.432 609.758 332.208Z" fill="white"/>
</g>
<path d="M593.253 226.578C591.581 234.592 589.775 249.203 595.014 254.157C595.014 254.157 580.09 262.082 576.389 261.336C573.807 260.813 571.21 255.62 571.21 255.62C579.806 252.978 579.717 246.442 578.374 240.368L593.253 226.578Z" fill="#FBC6BF"/>
<path opacity="0.2" d="M587.193 232.204L578.373 240.367C578.711 241.789 578.926 243.237 579.015 244.695C582.283 244.009 586.85 240.024 587.268 236.472C587.49 235.056 587.465 233.612 587.193 232.204Z" fill="black"/>
<path d="M576.314 261.35C576.314 261.35 578.955 264.753 582.06 268.155C586.88 266.036 598.207 260.291 597.998 254.411C597.431 252.665 593.028 251.336 593.028 251.336C593.028 251.336 587.82 257.44 576.314 261.35Z" fill="#80BCFF"/>
<path d="M576.314 261.351C573.901 263.077 571.75 265.143 569.927 267.484C566.584 265.052 568.927 254.247 570.27 253.113C572.125 252.209 574.178 251.788 576.239 251.889C575.477 253.352 575.086 254.979 575.099 256.629C575.112 258.279 575.529 259.9 576.314 261.351Z" fill="#80BCFF"/>
<g opacity="0.5">
<path d="M576.314 261.351C576.314 261.351 578.956 264.753 582.06 268.156C586.88 266.037 598.208 260.291 597.999 254.411C597.431 252.665 593.029 251.337 593.029 251.337C593.029 251.337 587.821 257.44 576.314 261.351Z" fill="white"/>
<path d="M576.315 261.351C573.902 263.077 571.75 265.143 569.927 267.484C566.584 265.052 568.927 254.247 570.27 253.113C572.126 252.209 574.179 251.788 576.24 251.889C575.478 253.352 575.086 254.979 575.099 256.629C575.112 258.279 575.53 259.9 576.315 261.351Z" fill="white"/>
</g>
<path d="M597.998 254.456C596.151 268.538 595.542 282.755 596.177 296.944C597.058 316.195 600.655 338.208 610.907 354.355C610.907 354.355 614.429 368.966 610.4 380.517C610.4 380.517 614.549 379.606 615.713 377.532C616.877 375.457 610.37 346.55 611.235 325.627C612.101 304.704 618.697 258.022 618.697 258.022C614.172 256.547 609.506 255.547 604.773 255.038C602.774 254.799 600.475 254.56 597.998 254.456Z" fill="#263238"/>
<path opacity="0.7" d="M597.998 254.456C596.151 268.538 595.542 282.755 596.177 296.944C597.058 316.195 600.655 338.208 610.907 354.355C610.907 354.355 614.429 368.966 610.4 380.517C610.4 380.517 614.549 379.606 615.713 377.532C616.877 375.457 610.37 346.55 611.235 325.627C611.564 317.822 612.728 306.42 613.996 295.183C614.474 291.064 614.966 286.96 615.489 283.064C617.235 269.215 618.802 258.037 618.802 258.037C614.277 256.562 609.61 255.562 604.878 255.053C602.774 254.799 600.475 254.56 597.998 254.456Z" fill="white"/>
<path opacity="0.2" d="M597.998 254.456C596.151 268.538 595.542 282.755 596.177 296.944L608.803 268.588L601.072 266.499L609.743 263.276L604.818 255.053C602.774 254.799 600.475 254.56 597.998 254.456Z" fill="black"/>
<path d="M540.706 371.413L542.452 373.219C544.799 348.754 548.486 324.437 553.496 300.376C553.899 298.376 554.316 296.466 554.704 294.645C562.375 259.843 568.942 254.351 569.36 254.097L563.972 254.933L554.197 256.426C546.213 285.93 540.706 371.413 540.706 371.413Z" fill="#263238"/>
<path opacity="0.7" d="M540.706 371.413L542.452 373.219C544.799 348.754 548.486 324.437 553.496 300.376C553.899 298.376 554.316 296.466 554.704 294.645C562.375 259.843 568.942 254.351 569.36 254.097L563.972 254.933L554.197 256.426C546.213 285.93 540.706 371.413 540.706 371.413Z" fill="white"/>
<path opacity="0.2" d="M561.733 265.425L555.271 268.036C555.271 268.036 553.779 285.467 554.704 294.645C562.375 259.843 568.941 254.351 569.359 254.097L563.972 254.933C560.724 257.035 557.85 259.663 555.465 262.708L561.733 265.425Z" fill="black"/>
<path d="M604.549 349.371L597.401 357.624L610.683 361.384C610.683 361.384 615.16 353.027 610.982 350.162L604.549 349.371Z" fill="#FBC6BF"/>
<path d="M596.953 366.548L608.072 369.145L610.683 361.384L597.416 357.624L596.953 366.548Z" fill="#FBC6BF"/>
<path opacity="0.1" d="M612.668 283.109C612.305 287.193 612.762 291.308 614.011 295.212C614.489 291.094 614.981 286.99 615.504 283.094C614.569 282.891 613.601 282.896 612.668 283.109Z" fill="black"/>
<path d="M612.34 338.491L601.908 352.788L608.982 357.579L618.727 344.715L612.34 338.491Z" fill="#FBC6BF"/>
<path d="M618.772 258.067C624.861 259.843 644.859 300.66 644.142 311.793C643.426 322.926 617.847 352.952 617.847 352.952L607.878 344.461C607.878 344.461 627.756 314.897 629.159 310.36C630.562 305.823 612.668 283.109 612.668 283.109C611.829 278.461 611.754 273.708 612.444 269.036C613.563 260.962 618.772 258.067 618.772 258.067Z" fill="#263238"/>
<path opacity="0.7" d="M618.772 258.067C624.861 259.843 644.859 300.66 644.142 311.793C643.426 322.926 617.847 352.952 617.847 352.952L607.878 344.461C607.878 344.461 627.756 314.897 629.159 310.36C630.562 305.823 612.668 283.109 612.668 283.109C611.829 278.461 611.754 273.708 612.444 269.036C613.563 260.962 618.772 258.067 618.772 258.067Z" fill="white"/>
<path opacity="0.2" d="M571.046 433.705L577.478 398.709L576.239 380.188C576.239 380.188 567.42 412.304 571.046 433.705Z" fill="black"/>
<path d="M570.061 206.222C567.404 209.356 567.598 214.176 567.479 217.251C567.359 220.325 566.822 224.339 570.762 220.101C574.702 215.863 578.776 198.447 570.061 206.222Z" fill="#80BCFF"/>
<path d="M594.715 220.459C593.387 230.727 594.715 232.473 589.178 237.368C580.791 244.74 567.867 245.442 566.703 234.861C565.659 225.354 565.823 208.237 576.21 204.909C578.509 204.168 580.959 204.023 583.329 204.488C585.7 204.952 587.914 206.011 589.763 207.566C591.613 209.12 593.037 211.118 593.903 213.373C594.77 215.628 595.049 218.067 594.715 220.459Z" fill="#FBC6BF"/>
<path d="M593.193 227.369C587.775 227.19 588.536 225.026 588.85 224.519C590.253 222.31 588.701 219.042 587.029 214.818C585.358 210.595 593.819 205.73 599.968 207.55C605.639 209.222 602.236 227.668 593.193 227.369Z" fill="#80BCFF"/>
<path d="M570.315 230.443C570.315 230.443 574.046 231.503 581.463 229.25C580.567 231.563 578.806 233.518 574.598 233.727C570.389 233.936 570.315 230.443 570.315 230.443Z" fill="white"/>
<path d="M598.969 227.593C597.935 229.759 596.115 231.451 593.88 232.324C591.044 233.339 589.701 230.533 590.537 227.474C591.298 224.728 593.7 220.892 596.506 221.206C599.312 221.519 600.312 224.907 598.969 227.593Z" fill="#FBC6BF"/>
<path d="M573.046 220.34C572.153 222.371 570.977 224.265 569.553 225.966C570.002 226.321 570.523 226.574 571.08 226.708C571.636 226.842 572.215 226.854 572.777 226.742L573.046 220.34Z" fill="#E39489"/>
<path d="M600.133 203.103C597.984 199.641 579.762 196.746 572.524 199.223C571.846 199.378 571.211 199.681 570.665 200.112C570.119 200.542 569.676 201.088 569.368 201.711C569.059 202.334 568.893 203.018 568.881 203.713C568.869 204.408 569.013 205.097 569.3 205.73C572.747 212.52 578.478 208.804 578.478 208.804C579.396 208.209 580.423 207.8 581.499 207.602C582.575 207.403 583.679 207.419 584.749 207.648C585.819 207.876 586.833 208.314 587.734 208.935C588.635 209.556 589.405 210.348 589.999 211.266L600.625 208.714C601.021 207.813 601.183 206.826 601.097 205.846C601.011 204.865 600.679 203.922 600.133 203.103Z" fill="#80BCFF"/>
<path d="M581.926 219.937C581.926 220.802 581.373 221.429 580.806 221.429C580.239 221.429 579.821 220.668 579.866 219.802C579.911 218.937 580.403 218.31 580.97 218.31C581.538 218.31 581.97 219.071 581.926 219.937Z" fill="#263238"/>
<path d="M572.12 219.31C572.12 220.176 571.583 220.803 571.016 220.803C570.449 220.803 570.031 220.042 570.075 219.176C570.12 218.31 570.613 217.684 571.18 217.684C571.747 217.684 572.165 218.445 572.12 219.31Z" fill="#263238"/>
<path d="M585.104 216.967C585.013 216.97 584.922 216.949 584.842 216.908C584.761 216.866 584.692 216.804 584.641 216.728C584.3 216.186 583.836 215.732 583.286 215.402C582.736 215.073 582.116 214.878 581.477 214.833C581.341 214.833 581.211 214.78 581.113 214.685C581.015 214.591 580.959 214.462 580.955 214.326C580.955 214.191 581.008 214.062 581.104 213.967C581.199 213.872 581.328 213.818 581.462 213.818C582.274 213.858 583.065 214.093 583.766 214.503C584.468 214.914 585.06 215.488 585.492 216.176C585.563 216.288 585.588 216.423 585.563 216.554C585.538 216.684 585.465 216.8 585.357 216.878C585.279 216.923 585.193 216.953 585.104 216.967Z" fill="#263238"/>
<path d="M568.076 215.654C567.976 215.658 567.878 215.632 567.792 215.579C567.733 215.548 567.681 215.505 567.639 215.454C567.597 215.402 567.566 215.342 567.548 215.278C567.53 215.213 567.525 215.146 567.534 215.08C567.542 215.014 567.564 214.95 567.598 214.893C567.971 214.179 568.513 213.566 569.176 213.108C569.839 212.651 570.604 212.362 571.404 212.266C571.539 212.256 571.672 212.3 571.774 212.389C571.876 212.477 571.939 212.602 571.949 212.736C571.959 212.871 571.915 213.004 571.826 213.106C571.738 213.208 571.613 213.271 571.479 213.281C570.846 213.363 570.242 213.599 569.722 213.968C569.201 214.338 568.78 214.83 568.494 215.4C568.452 215.475 568.392 215.538 568.319 215.583C568.245 215.627 568.162 215.652 568.076 215.654Z" fill="#263238"/>
<defs>
<filter id="filter0_d_1_658" x="330.176" y="230.784" width="131.658" height="49.4561" filterUnits="userSpaceOnUse" color-interpolation-filters="sRGB">
<feFlood flood-opacity="0" result="BackgroundImageFix"/>
<feColorMatrix in="SourceAlpha" type="matrix" values="0 0 0 0 0 0 0 0 0 0 0 0 0 0 0 0 0 0 127 0" result="hardAlpha"/>
<feOffset dy="4"/>
<feGaussianBlur stdDeviation="6.5"/>
<feComposite in2="hardAlpha" operator="out"/>
<feColorMatrix type="matrix" values="0 0 0 0 0.608958 0 0 0 0 0.787095 0 0 0 0 0.9875 0 0 0 1 0"/>
<feBlend mode="normal" in2="BackgroundImageFix" result="effect1_dropShadow_1_658"/>
<feBlend mode="normal" in="SourceGraphic" in2="effect1_dropShadow_1_658" result="shape"/>
</filter>
<filter id="filter1_d_1_658" x="338.432" y="264.784" width="118.442" height="54.5441" filterUnits="userSpaceOnUse" color-interpolation-filters="sRGB">
<feFlood flood-opacity="0" result="BackgroundImageFix"/>
<feColorMatrix in="SourceAlpha" type="matrix" values="0 0 0 0 0 0 0 0 0 0 0 0 0 0 0 0 0 0 127 0" result="hardAlpha"/>
<feOffset dy="4"/>
<feGaussianBlur stdDeviation="6.5"/>
<feComposite in2="hardAlpha" operator="out"/>
<feColorMatrix type="matrix" values="0 0 0 0 0.608958 0 0 0 0 0.787095 0 0 0 0 0.9875 0 0 0 1 0"/>
<feBlend mode="normal" in2="BackgroundImageFix" result="effect1_dropShadow_1_658"/>
<feBlend mode="normal" in="SourceGraphic" in2="effect1_dropShadow_1_658" result="shape"/>
</filter>
</defs>
</svg>
