<svg width="84" height="84" viewBox="0 0 84 84" fill="none" xmlns="http://www.w3.org/2000/svg">
<path d="M42 83.9347C18.9881 83.9347 0.333328 65.2797 0.333328 42.268C0.333328 19.2561 18.9881 0.601318 42 0.601318C65.0117 0.601318 83.6667 19.2561 83.6667 42.268C83.6667 65.2797 65.0117 83.9347 42 83.9347ZM36.2579 27.3288C35.9842 27.1462 35.6625 27.0489 35.3333 27.0489C34.4129 27.0489 33.6667 27.795 33.6667 28.7155V55.8205C33.6667 56.1497 33.7642 56.4713 33.9467 56.7451C34.4571 57.5109 35.4921 57.718 36.2579 57.2072L56.5867 43.6547C56.7696 43.5326 56.9267 43.3755 57.0487 43.1926C57.5596 42.4267 57.3525 41.3917 56.5867 40.8813L36.2579 27.3288Z" fill="white"/>
</svg>
